<svg width="391" height="136" viewBox="0 0 391 136" fill="none" xmlns="http://www.w3.org/2000/svg">
<path d="M0 53.9999H27.0055V80.9999H0V53.9999Z" fill="#81807F"/>
<path d="M81.0166 81.0001H54.0111V54.0001L81.0166 54.0001V81.0001Z" fill="#454545"/>
<path d="M27.0055 53.9999L54.0111 27V54.0001L27.0055 80.9999V53.9999Z" fill="#595857"/>
<path d="M54.0111 81.0001L27.0055 108L27.0055 80.9999L54.0111 54.0001V81.0001Z" fill="#7B7B7B"/>
<path d="M0 53.9999L54.0111 0L54.0111 27L27.0055 53.9999H0Z" fill="#454545"/>
<path d="M81.0166 81.0001L27.0055 135L27.0055 108L54.0111 81.0001H81.0166Z" fill="#585858"/>
<path d="M130.275 107.01C113.622 107.01 102.369 98.01 102.099 84.51H113.532C113.802 91.53 120.463 96.21 130.275 96.21C139.547 96.21 145.758 92.79 145.758 87.75C145.758 75.15 105.52 82.8 105.52 60.93C105.52 50.04 115.422 42.75 130.275 42.75C142.698 42.75 152.87 49.86 155.75 60.48L144.678 63.27C143.238 57.42 137.477 53.55 130.275 53.55C122.624 53.55 117.493 56.52 117.493 60.93C117.493 70.47 157.731 65.16 157.731 87.75C157.731 99.27 146.748 107.01 130.275 107.01Z" fill="#454545"/>
<path d="M171.497 122.49L179.238 102.87L162.045 60.75H173.567L184.729 89.01L195.801 60.75H207.414L183.109 122.49H171.497Z" fill="#454545"/>
<path d="M213.522 105.75V60.75H224.324V64.08C227.295 61.29 232.156 59.49 236.566 59.49C248.899 59.49 257.091 66.78 257.091 77.76V105.75H246.288V79.02C246.288 72.99 241.878 69.03 235.306 69.03C228.735 69.03 224.324 72.99 224.324 79.02V105.75H213.522Z" fill="#454545"/>
<path d="M265.388 105.75V60.75H276.19V66.06C278.53 62.37 282.941 59.85 287.082 59.85C288.703 59.85 290.593 60.21 291.853 60.75V69.03H288.162C280.961 69.03 276.19 73.08 276.19 79.11V105.75H265.388Z" fill="#454545"/>
<path d="M315.83 123.75C303.498 123.75 294.316 116.55 292.786 105.75H303.588C304.938 110.79 309.799 114.21 315.83 114.21C324.022 114.21 328.613 109.35 328.613 100.8V100.08C325.282 103.5 319.791 105.75 314.84 105.75C301.247 105.75 292.246 96.48 292.246 82.62C292.246 68.76 301.247 59.49 314.84 59.49C319.791 59.49 325.282 61.74 328.613 65.16V60.75H339.415V100.8C339.415 115.47 330.954 123.75 315.83 123.75ZM315.92 96.21C323.572 96.21 328.613 90.81 328.613 82.62C328.613 74.43 323.572 69.03 315.92 69.03C308.179 69.03 303.048 74.43 303.048 82.62C303.048 90.81 308.179 96.21 315.92 96.21Z" fill="#454545"/>
<path d="M354.083 122.49L361.824 102.87L344.631 60.75H356.153L367.315 89.01L378.388 60.75H390L365.695 122.49H354.083Z" fill="#454545"/>
<rect x="378" y="123" width="12" height="12" rx="6" stroke="#454545"/>
<path d="M382.146 132V126.182H384.112C384.566 126.182 384.94 126.259 385.231 126.415C385.523 126.568 385.739 126.779 385.879 127.048C386.019 127.317 386.089 127.623 386.089 127.966C386.089 128.309 386.019 128.613 385.879 128.878C385.739 129.143 385.524 129.351 385.234 129.503C384.944 129.652 384.574 129.727 384.123 129.727H382.532V129.091H384.1C384.411 129.091 384.661 129.045 384.85 128.955C385.042 128.864 385.18 128.735 385.265 128.568C385.352 128.4 385.396 128.199 385.396 127.966C385.396 127.733 385.352 127.529 385.265 127.355C385.178 127.181 385.039 127.046 384.848 126.952C384.656 126.855 384.404 126.807 384.089 126.807H382.85V132H382.146ZM384.885 129.386L386.316 132H385.498L384.089 129.386H384.885Z" fill="#454545"/>
</svg>
