<svg width="365" height="85" viewBox="0 0 365 85" fill="none" xmlns="http://www.w3.org/2000/svg">
<path d="M46.8281 31.1953C49.0625 31.1953 50.7812 30.5938 51.9844 29.3906C53.1875 28.1875 53.7891 26.4688 53.7891 24.2344V14.1562C53.7891 13.0625 53.6328 12.0859 53.3203 11.2266C53.0078 10.3672 52.5469 9.64062 51.9375 9.04688C51.3438 8.4375 50.6172 7.97656 49.7578 7.66406C48.8984 7.35156 47.9219 7.19531 46.8281 7.19531H34.5469V31.1953H46.8281ZM29.7422 36V2.39062H46.8281C48.625 2.39062 50.2422 2.67188 51.6797 3.23438C53.1328 3.78125 54.3672 4.57031 55.3828 5.60156C56.4141 6.61719 57.2031 7.85156 57.75 9.30469C58.3125 10.7578 58.5938 12.375 58.5938 14.1562V24.2344C58.5938 26.0156 58.3125 27.6328 57.75 29.0859C57.2031 30.5391 56.4141 31.7812 55.3828 32.8125C54.3672 33.8281 53.1328 34.6172 51.6797 35.1797C50.2422 35.7266 48.625 36 46.8281 36H29.7422ZM66.3047 2.39062H90.7969V7.19531H71.1094V16.8047H87.9141V21.6094H71.1094V31.1953H90.7969V36H66.3047V2.39062ZM102.797 2.39062V16.8984L118.828 2.39062H125.602L107.414 18.8672L126.328 36H119.555L102.797 20.8828V36H97.9922V2.39062H102.797ZM135.516 2.39062V31.1953H152.789V36H130.711V2.39062H135.516ZM187.359 31.1953C187.359 31.8516 187.234 32.4766 186.984 33.0703C186.734 33.6484 186.391 34.1562 185.953 34.5938C185.516 35.0312 185 35.375 184.406 35.625C183.828 35.875 183.211 36 182.555 36H163.359C162.703 36 162.078 35.875 161.484 35.625C160.906 35.375 160.398 35.0312 159.961 34.5938C159.523 34.1562 159.18 33.6484 158.93 33.0703C158.68 32.4766 158.555 31.8516 158.555 31.1953V7.19531C158.555 6.53906 158.68 5.92188 158.93 5.34375C159.18 4.75 159.523 4.24219 159.961 3.82031C160.398 3.38281 160.906 3.03906 161.484 2.78906C162.078 2.52344 162.703 2.39062 163.359 2.39062H182.555C183.211 2.39062 183.828 2.52344 184.406 2.78906C185 3.03906 185.516 3.38281 185.953 3.82031C186.391 4.24219 186.734 4.75 186.984 5.34375C187.234 5.92188 187.359 6.53906 187.359 7.19531V31.1953ZM163.359 7.19531V31.1953H182.555V7.19531H163.359ZM207.516 2.39062H234.398V7.19531H223.359V36H218.555V7.19531H207.516V2.39062ZM240.164 2.39062H264.656V7.19531H244.969V16.8047H261.773V21.6094H244.969V31.1953H264.656V36H240.164V2.39062ZM271.852 7.19531C271.852 6.53906 271.977 5.92188 272.227 5.34375C272.477 4.75 272.82 4.24219 273.258 3.82031C273.695 3.38281 274.203 3.03906 274.781 2.78906C275.375 2.52344 276 2.39062 276.656 2.39062H294.891C295.547 2.39062 296.164 2.52344 296.742 2.78906C297.336 3.03906 297.852 3.38281 298.289 3.82031C298.727 4.24219 299.07 4.75 299.32 5.34375C299.57 5.92188 299.695 6.53906 299.695 7.19531V11.5312H294.891V7.19531H276.656V31.1953H294.891V26.8828H299.695V31.1953C299.695 31.8516 299.57 32.4766 299.32 33.0703C299.07 33.6484 298.727 34.1562 298.289 34.5938C297.852 35.0312 297.336 35.375 296.742 35.625C296.164 35.875 295.547 36 294.891 36H276.656C276 36 275.375 35.875 274.781 35.625C274.203 35.375 273.695 35.0312 273.258 34.5938C272.82 34.1562 272.477 33.6484 272.227 33.0703C271.977 32.4766 271.852 31.8516 271.852 31.1953V7.19531ZM336.234 2.39062V36H331.43V21.6094H312.188V36H307.383V2.39062H312.188V16.8047H331.43V2.39062H336.234Z" fill="#7E7C7C"/>
<path d="M2.96875 58.7969C2.96875 58.3594 3.05208 57.9479 3.21875 57.5625C3.38542 57.1667 3.61458 56.8281 3.90625 56.5469C4.19792 56.2552 4.53646 56.026 4.92188 55.8594C5.31771 55.6823 5.73438 55.5938 6.17188 55.5938H18.3281C18.7656 55.5938 19.1771 55.6823 19.5625 55.8594C19.9583 56.026 20.3021 56.2552 20.5938 56.5469C20.8854 56.8281 21.1146 57.1667 21.2812 57.5625C21.4479 57.9479 21.5312 58.3594 21.5312 58.7969V61.6875H18.3281V58.7969H6.17188V74.7969H18.3281V71.9219H21.5312V74.7969C21.5312 75.2344 21.4479 75.651 21.2812 76.0469C21.1146 76.4323 20.8854 76.7708 20.5938 77.0625C20.3021 77.3542 19.9583 77.5833 19.5625 77.75C19.1771 77.9167 18.7656 78 18.3281 78H6.17188C5.73438 78 5.31771 77.9167 4.92188 77.75C4.53646 77.5833 4.19792 77.3542 3.90625 77.0625C3.61458 76.7708 3.38542 76.4323 3.21875 76.0469C3.05208 75.651 2.96875 75.2344 2.96875 74.7969V58.7969ZM29.4062 54.9531V78H26.3438V54.9531H29.4062ZM48.6094 71.25H37.5938V74.9219H48.6094V78H37.5938C37.1771 78 36.7812 77.9219 36.4062 77.7656C36.0312 77.599 35.7031 77.3802 35.4219 77.1094C35.151 76.8281 34.9323 76.5 34.7656 76.125C34.6094 75.75 34.5312 75.349 34.5312 74.9219V64.4375C34.5312 64.0104 34.6094 63.6094 34.7656 63.2344C34.9323 62.8594 35.151 62.5365 35.4219 62.2656C35.7031 61.9844 36.0312 61.7656 36.4062 61.6094C36.7812 61.4427 37.1771 61.3594 37.5938 61.3594H45.5312C45.9583 61.3594 46.3594 61.4427 46.7344 61.6094C47.1094 61.7656 47.4323 61.9844 47.7031 62.2656C47.9844 62.5365 48.2031 62.8594 48.3594 63.2344C48.526 63.6094 48.6094 64.0104 48.6094 64.4375V71.25ZM37.5938 64.4375V68.1719H45.5312V64.4375H37.5938ZM53.75 70.7344C53.75 70.3073 53.8281 69.9115 53.9844 69.5469C54.151 69.1719 54.3698 68.8438 54.6406 68.5625C54.9219 68.2812 55.25 68.0625 55.625 67.9062C56 67.7396 56.3958 67.6562 56.8125 67.6562H64.75V64.4375H54.7031V61.3594H64.75C65.1771 61.3594 65.5781 61.4427 65.9531 61.6094C66.3281 61.7656 66.651 61.9844 66.9219 62.2656C67.2031 62.5365 67.4219 62.8594 67.5781 63.2344C67.7448 63.6094 67.8281 64.0104 67.8281 64.4375V78H64.75V75.1875C64.7188 75.5729 64.6146 75.9375 64.4375 76.2812C64.2604 76.625 64.0312 76.9271 63.75 77.1875C63.4792 77.4375 63.1667 77.6354 62.8125 77.7812C62.4583 77.9271 62.0833 78 61.6875 78H56.8125C56.3958 78 56 77.9219 55.625 77.7656C55.25 77.599 54.9219 77.3802 54.6406 77.1094C54.3698 76.8281 54.151 76.5 53.9844 76.125C53.8281 75.75 53.75 75.349 53.75 74.9219V70.7344ZM56.8125 74.9219H64.75V70.7344H56.8125V74.9219ZM87.6875 78H84.6094V64.4375H76.0312V78H72.9688V61.3594H76.0312V64.2969C76.0521 63.8906 76.1458 63.5104 76.3125 63.1562C76.4792 62.7917 76.6979 62.4792 76.9688 62.2188C77.25 61.9479 77.5729 61.7396 77.9375 61.5938C78.3021 61.4375 78.6927 61.3594 79.1094 61.3594H84.6094C85.0365 61.3594 85.4375 61.4427 85.8125 61.6094C86.1875 61.7656 86.5104 61.9844 86.7812 62.2656C87.0625 62.5365 87.2812 62.8594 87.4375 63.2344C87.6042 63.6094 87.6875 64.0104 87.6875 64.4375V78ZM116.484 71.25H105.469V74.9219H116.484V78H105.469C105.052 78 104.656 77.9219 104.281 77.7656C103.906 77.599 103.578 77.3802 103.297 77.1094C103.026 76.8281 102.807 76.5 102.641 76.125C102.484 75.75 102.406 75.349 102.406 74.9219V64.4375C102.406 64.0104 102.484 63.6094 102.641 63.2344C102.807 62.8594 103.026 62.5365 103.297 62.2656C103.578 61.9844 103.906 61.7656 104.281 61.6094C104.656 61.4427 105.052 61.3594 105.469 61.3594H113.406C113.833 61.3594 114.234 61.4427 114.609 61.6094C114.984 61.7656 115.307 61.9844 115.578 62.2656C115.859 62.5365 116.078 62.8594 116.234 63.2344C116.401 63.6094 116.484 64.0104 116.484 64.4375V71.25ZM105.469 64.4375V68.1719H113.406V64.4375H105.469ZM136.344 78H133.266V64.4375H124.688V78H121.625V61.3594H124.688V64.2969C124.708 63.8906 124.802 63.5104 124.969 63.1562C125.135 62.7917 125.354 62.4792 125.625 62.2188C125.906 61.9479 126.229 61.7396 126.594 61.5938C126.958 61.4375 127.349 61.3594 127.766 61.3594H133.266C133.693 61.3594 134.094 61.4427 134.469 61.6094C134.844 61.7656 135.167 61.9844 135.438 62.2656C135.719 62.5365 135.938 62.8594 136.094 63.2344C136.26 63.6094 136.344 64.0104 136.344 64.4375V78ZM155.547 71.25H144.531V74.9219H155.547V78H144.531C144.115 78 143.719 77.9219 143.344 77.7656C142.969 77.599 142.641 77.3802 142.359 77.1094C142.089 76.8281 141.87 76.5 141.703 76.125C141.547 75.75 141.469 75.349 141.469 74.9219V64.4375C141.469 64.0104 141.547 63.6094 141.703 63.2344C141.87 62.8594 142.089 62.5365 142.359 62.2656C142.641 61.9844 142.969 61.7656 143.344 61.6094C143.719 61.4427 144.115 61.3594 144.531 61.3594H152.469C152.896 61.3594 153.297 61.4427 153.672 61.6094C154.047 61.7656 154.37 61.9844 154.641 62.2656C154.922 62.5365 155.141 62.8594 155.297 63.2344C155.464 63.6094 155.547 64.0104 155.547 64.4375V71.25ZM144.531 64.4375V68.1719H152.469V64.4375H144.531ZM163.75 64.4375V78H160.688V61.3594H163.75V64.2969C163.771 63.8906 163.865 63.5104 164.031 63.1562C164.198 62.7917 164.417 62.4792 164.688 62.2188C164.969 61.9479 165.292 61.7396 165.656 61.5938C166.021 61.4375 166.411 61.3594 166.828 61.3594H170.094C170.521 61.3594 170.917 61.4427 171.281 61.6094C171.656 61.7656 171.984 61.9844 172.266 62.2656C172.547 62.5365 172.766 62.8594 172.922 63.2344C173.089 63.6094 173.172 64.0104 173.172 64.4375V67.25H170.094V64.4375H163.75ZM177 64.4375C177 64.0104 177.078 63.6094 177.234 63.2344C177.401 62.8594 177.62 62.5365 177.891 62.2656C178.172 61.9844 178.5 61.7656 178.875 61.6094C179.25 61.4427 179.646 61.3594 180.062 61.3594H185.578C185.984 61.3594 186.37 61.4375 186.734 61.5938C187.099 61.7396 187.417 61.9479 187.688 62.2188C187.969 62.4792 188.193 62.7917 188.359 63.1562C188.536 63.5104 188.63 63.8906 188.641 64.2969V61.3594H191.719V81.6406C191.719 82.0677 191.635 82.4688 191.469 82.8438C191.312 83.2188 191.094 83.5417 190.812 83.8125C190.542 84.0938 190.219 84.3125 189.844 84.4688C189.469 84.6354 189.068 84.7188 188.641 84.7188H178.922V81.6406H188.641V77.3594H180.062C179.646 77.3594 179.25 77.2812 178.875 77.125C178.5 76.9583 178.172 76.7396 177.891 76.4688C177.62 76.1875 177.401 75.8594 177.234 75.4844C177.078 75.1094 177 74.7083 177 74.2812V64.4375ZM188.641 74.2812V64.4375H180.062V74.2812H188.641ZM197.969 84.7188L201.453 76.5L194.922 61.3594H198.156L203.016 72.8125L207.875 61.3594H211.109L201.031 84.7188H197.969ZM226.969 64.4375V74.9219H234.906V72.1094H237.984V74.9219C237.984 75.349 237.901 75.75 237.734 76.125C237.578 76.5 237.359 76.8281 237.078 77.1094C236.807 77.3802 236.484 77.599 236.109 77.7656C235.734 77.9219 235.333 78 234.906 78H226.969C226.552 78 226.156 77.9219 225.781 77.7656C225.406 77.599 225.078 77.3802 224.797 77.1094C224.526 76.8281 224.307 76.5 224.141 76.125C223.984 75.75 223.906 75.349 223.906 74.9219V64.4375C223.906 64.0104 223.984 63.6094 224.141 63.2344C224.307 62.8594 224.526 62.5365 224.797 62.2656C225.078 61.9844 225.406 61.7656 225.781 61.6094C226.156 61.4427 226.552 61.3594 226.969 61.3594H234.906C235.333 61.3594 235.734 61.4427 236.109 61.6094C236.484 61.7656 236.807 61.9844 237.078 62.2656C237.359 62.5365 237.578 62.8594 237.734 63.2344C237.901 63.6094 237.984 64.0104 237.984 64.4375V67.25H234.906V64.4375H226.969ZM257.516 74.9219C257.516 75.349 257.432 75.75 257.266 76.125C257.109 76.5 256.891 76.8281 256.609 77.1094C256.339 77.3802 256.016 77.599 255.641 77.7656C255.276 77.9219 254.88 78 254.453 78H246.188C245.771 78 245.375 77.9219 245 77.7656C244.625 77.599 244.297 77.3802 244.016 77.1094C243.745 76.8281 243.526 76.5 243.359 76.125C243.203 75.75 243.125 75.349 243.125 74.9219V64.4375C243.125 64.0104 243.203 63.6094 243.359 63.2344C243.526 62.8594 243.745 62.5365 244.016 62.2656C244.297 61.9844 244.625 61.7656 245 61.6094C245.375 61.4427 245.771 61.3594 246.188 61.3594H254.453C254.88 61.3594 255.276 61.4427 255.641 61.6094C256.016 61.7656 256.339 61.9844 256.609 62.2656C256.891 62.5365 257.109 62.8594 257.266 63.2344C257.432 63.6094 257.516 64.0104 257.516 64.4375V74.9219ZM246.188 64.4375V74.9219H254.453V64.4375H246.188ZM275.844 64.4375V78H272.766V64.4375H265.719V78H262.656V61.3594H265.719V64.2969C265.74 63.8906 265.833 63.5104 266 63.1562C266.167 62.7917 266.385 62.4792 266.656 62.2188C266.938 61.9479 267.26 61.7396 267.625 61.5938C267.99 61.4375 268.38 61.3594 268.797 61.3594H272.766C273.172 61.3594 273.557 61.4375 273.922 61.5938C274.286 61.7396 274.609 61.9479 274.891 62.2188C275.172 62.4792 275.396 62.7917 275.562 63.1562C275.74 63.5104 275.833 63.8906 275.844 64.2969C275.865 63.8906 275.953 63.5104 276.109 63.1562C276.276 62.7917 276.495 62.4792 276.766 62.2188C277.047 61.9479 277.37 61.7396 277.734 61.5938C278.099 61.4375 278.49 61.3594 278.906 61.3594H282.875C283.302 61.3594 283.703 61.4427 284.078 61.6094C284.453 61.7656 284.776 61.9844 285.047 62.2656C285.328 62.5365 285.547 62.8594 285.703 63.2344C285.87 63.6094 285.953 64.0104 285.953 64.4375V78H282.875V64.4375H275.844ZM305.812 74.9219C305.812 75.349 305.729 75.75 305.562 76.125C305.406 76.5 305.188 76.8281 304.906 77.1094C304.635 77.3802 304.312 77.599 303.938 77.7656C303.562 77.9219 303.161 78 302.734 78H294.156V84.7188H291.094V61.3594H294.156V64.1719C294.188 63.776 294.292 63.4115 294.469 63.0781C294.646 62.7344 294.87 62.4375 295.141 62.1875C295.411 61.9271 295.724 61.724 296.078 61.5781C296.443 61.4323 296.828 61.3594 297.234 61.3594H302.734C303.161 61.3594 303.562 61.4427 303.938 61.6094C304.312 61.7656 304.635 61.9844 304.906 62.2656C305.188 62.5365 305.406 62.8594 305.562 63.2344C305.729 63.6094 305.812 64.0104 305.812 64.4375V74.9219ZM302.734 74.9219V64.4375H294.156V74.9219H302.734ZM310.938 70.7344C310.938 70.3073 311.016 69.9115 311.172 69.5469C311.339 69.1719 311.557 68.8438 311.828 68.5625C312.109 68.2812 312.438 68.0625 312.812 67.9062C313.188 67.7396 313.583 67.6562 314 67.6562H321.938V64.4375H311.891V61.3594H321.938C322.365 61.3594 322.766 61.4427 323.141 61.6094C323.516 61.7656 323.839 61.9844 324.109 62.2656C324.391 62.5365 324.609 62.8594 324.766 63.2344C324.932 63.6094 325.016 64.0104 325.016 64.4375V78H321.938V75.1875C321.906 75.5729 321.802 75.9375 321.625 76.2812C321.448 76.625 321.219 76.9271 320.938 77.1875C320.667 77.4375 320.354 77.6354 320 77.7812C319.646 77.9271 319.271 78 318.875 78H314C313.583 78 313.188 77.9219 312.812 77.7656C312.438 77.599 312.109 77.3802 311.828 77.1094C311.557 76.8281 311.339 76.5 311.172 76.125C311.016 75.75 310.938 75.349 310.938 74.9219V70.7344ZM314 74.9219H321.938V70.7344H314V74.9219ZM344.875 78H341.797V64.4375H333.219V78H330.156V61.3594H333.219V64.2969C333.24 63.8906 333.333 63.5104 333.5 63.1562C333.667 62.7917 333.885 62.4792 334.156 62.2188C334.438 61.9479 334.76 61.7396 335.125 61.5938C335.49 61.4375 335.88 61.3594 336.297 61.3594H341.797C342.224 61.3594 342.625 61.4427 343 61.6094C343.375 61.7656 343.698 61.9844 343.969 62.2656C344.25 62.5365 344.469 62.8594 344.625 63.2344C344.792 63.6094 344.875 64.0104 344.875 64.4375V78ZM351.125 84.7188L354.609 76.5L348.078 61.3594H351.312L356.172 72.8125L361.031 61.3594H364.266L354.188 84.7188H351.125Z" fill="#7E7C7C"/>
</svg>
