<svg width="2156" height="772" viewBox="0 0 2156 772" fill="none" xmlns="http://www.w3.org/2000/svg">
<path d="M102.067 547.871C102.067 542.914 100.852 538.929 98.422 535.916C95.9918 532.806 92.6867 530.279 88.5067 528.336C84.3266 526.392 79.612 524.837 74.3629 523.671C69.2111 522.407 63.7673 521.192 58.0326 520.026C50.4502 518.373 43.2084 516.43 36.3067 514.195C29.405 511.862 23.3296 508.703 18.0804 504.718C12.8313 500.636 8.65141 495.485 5.54076 489.265C2.43017 483.045 0.87484 475.269 0.87484 465.939C0.87484 455.637 2.67318 446.695 6.26981 439.114C9.86649 431.436 14.7268 425.119 20.8508 420.162C27.0721 415.108 34.3139 411.366 42.5765 408.936C50.9363 406.409 60.3165 405.146 70.7179 405.146C81.1188 405.146 91.5687 406.166 102.067 408.207C112.565 410.248 121.606 412.872 129.188 416.08V446.695C119.078 442.71 109.357 439.843 100.026 438.094C90.7911 436.247 82.0911 435.324 73.9257 435.324C62.1637 435.324 53.0748 437.462 46.6592 441.738C40.3408 446.015 37.1816 452.429 37.1816 460.982C37.1816 465.939 38.2022 470.021 40.2435 473.228C42.3821 476.435 45.2497 479.108 48.8463 481.247C52.443 483.288 56.5742 484.94 61.2404 486.204C65.906 487.467 70.8637 488.633 76.1128 489.702C84.3756 491.452 92.249 493.493 99.7341 495.825C107.316 498.06 114.024 501.219 119.856 505.301C125.688 509.383 130.306 514.729 133.708 521.338C137.11 527.849 138.811 536.208 138.811 546.413C138.811 556.91 136.867 565.997 132.979 573.675C129.09 581.353 123.55 587.72 116.356 592.773C109.26 597.73 100.609 601.423 90.4023 603.853C80.1955 606.283 69.0164 607.498 56.8656 607.498C46.2704 607.498 35.8206 606.429 25.5167 604.29C15.3101 602.249 6.80445 599.334 0 595.543V565.366C9.62347 569.545 19.0039 572.607 28.1413 574.55C37.2787 576.397 46.7078 577.32 56.4284 577.32C62.0664 577.32 67.6069 576.883 73.0508 576.008C78.4946 575.036 83.3549 573.432 87.6317 571.197C92.0059 568.962 95.5057 565.948 98.13 562.158C100.755 558.27 102.067 553.508 102.067 547.871ZM258.23 603.853H222.506V438.677H159.516V408.79H321.073V438.677H258.23V603.853ZM384.501 573.967H480.444V603.853H348.777V408.79H475.195V438.677H384.501V489.119H462.364V519.005H384.501V573.967ZM662.851 467.397C662.851 481.004 659.058 492.569 651.48 502.094C643.996 511.522 632.38 518.519 616.631 523.087V523.671L674.664 603.853H631.795L578.72 528.336H554.224V603.853H518.5V408.79H577.845C587.663 408.79 596.802 409.374 605.259 410.54C613.716 411.609 620.955 413.261 626.981 415.497C638.454 419.87 647.299 426.382 653.522 435.032C659.739 443.585 662.851 454.373 662.851 467.397ZM571.867 498.449C580.032 498.449 586.934 498.109 592.574 497.429C598.307 496.651 603.121 495.534 607.009 494.076C614.2 491.355 619.157 487.661 621.88 482.996C624.699 478.233 626.109 472.791 626.109 466.668C626.109 461.42 624.992 456.803 622.752 452.818C620.614 448.736 616.923 445.529 611.674 443.196C608.269 441.641 603.993 440.523 598.839 439.843C593.691 439.066 587.323 438.677 579.741 438.677H554.224V498.449H571.867ZM741.734 408.79V573.967H833.01V603.853H706.013V408.79H741.734ZM866.694 603.853V408.79H902.415V603.853H866.694ZM1050.85 499.47C1064.85 519.394 1076.22 537.083 1084.97 552.536H1085.84C1084.68 527.169 1084.09 508.703 1084.09 497.137V408.79H1119.82V603.853H1082.34L1018.77 514.048C1007.59 498.498 996.026 480.469 984.069 459.962H983.197C984.362 483.871 984.947 502.386 984.947 515.507V603.853H949.22V408.79H986.697L1050.85 499.47ZM1287.79 529.356H1244.05V499.47H1323.52V597.876C1320.6 598.945 1316.86 600.063 1312.29 601.229C1307.82 602.396 1302.76 603.416 1297.12 604.29C1291.59 605.262 1285.85 606.04 1279.92 606.623C1273.99 607.206 1268.11 607.498 1262.27 607.498C1244.78 607.498 1229.47 605.165 1216.35 600.5C1203.32 595.738 1192.43 589.08 1183.68 580.528C1175.04 571.975 1168.52 561.818 1164.15 550.058C1159.87 538.2 1157.73 525.128 1157.73 510.841C1157.73 500.733 1158.85 491.111 1161.08 481.975C1163.42 472.742 1166.77 464.238 1171.15 456.463C1175.62 448.59 1181.01 441.495 1187.33 435.178C1193.65 428.86 1200.84 423.466 1208.91 418.996C1217.08 414.525 1225.97 411.123 1235.6 408.79C1245.31 406.361 1255.72 405.146 1266.8 405.146C1276.61 405.146 1285.95 405.875 1294.79 407.333C1303.64 408.693 1310.88 410.394 1316.52 412.435V442.759C1308.94 440.329 1301.26 438.482 1293.48 437.219C1285.8 435.955 1278.02 435.324 1270.15 435.324C1259.56 435.324 1249.64 436.927 1240.4 440.135C1231.17 443.245 1223.15 447.91 1216.35 454.13C1209.64 460.253 1204.34 467.834 1200.45 476.873C1196.57 485.912 1194.62 496.36 1194.62 508.217C1194.72 531.251 1200.75 548.551 1212.7 560.117C1224.66 571.586 1241.62 577.32 1263.59 577.32C1267.67 577.32 1271.9 577.126 1276.27 576.737C1280.65 576.251 1284.49 575.667 1287.79 574.987V529.356ZM1401.38 408.936C1417.71 408.936 1430.4 409.665 1439.43 411.123C1448.48 412.484 1456.64 415.399 1463.93 419.87C1471.22 424.244 1476.52 429.541 1479.82 435.761C1483.13 441.981 1484.78 449.465 1484.78 458.212C1484.78 482.316 1472.53 497.235 1448.04 502.969V503.552C1462.13 503.844 1473.16 507.974 1481.14 515.944C1489.11 523.816 1493.09 534.799 1493.09 548.892C1493.09 559.194 1490.18 568.767 1484.35 577.612C1478.61 586.359 1470.88 592.919 1461.16 597.293C1451.54 601.667 1436.08 603.853 1414.8 603.853H1370.03V408.936H1401.38ZM1470.35 458.795C1470.35 449.854 1468.36 442.662 1464.37 437.219C1460.48 431.679 1454.45 427.548 1446.29 424.827C1438.13 422.008 1425.15 420.599 1407.36 420.599H1382.86V498.158H1422.96C1433.94 498.158 1442.84 496.651 1449.64 493.639C1456.45 490.528 1461.6 486.009 1465.1 480.08C1468.6 474.054 1470.35 466.959 1470.35 458.795ZM1478.8 548.892C1478.8 538.784 1476.37 530.474 1471.52 523.962C1466.75 517.353 1458.54 513.125 1446.87 511.279C1441.52 510.501 1433.65 510.113 1423.25 510.113H1382.86V592.19H1416.69C1430.78 592.19 1442.5 590.781 1451.83 587.963C1461.16 585.144 1467.97 580.138 1472.25 572.946C1476.62 565.657 1478.8 557.639 1478.8 548.892ZM1539.17 408.936H1552V592.19H1650.86V603.853H1539.17V408.936ZM1689.35 534.313V408.936H1702.19V539.707C1702.19 557.299 1707.24 571.051 1717.35 580.965C1727.56 590.878 1741.8 595.835 1760.07 595.835C1778.54 595.835 1792.83 591.073 1802.94 581.548C1813.05 571.926 1818.11 557.979 1818.11 539.707V408.936H1830.93V534.313C1830.93 583.103 1807.22 607.498 1759.78 607.498C1736.25 607.498 1718.61 601.229 1706.85 588.691C1695.19 576.057 1689.35 557.931 1689.35 534.313ZM1882.4 408.936H1993.51V420.599H1895.24V498.158H1985.2V509.821H1895.24V592.19H1999.2V603.853H1882.4V408.936ZM2036.53 597.001V583.006C2041.29 585.922 2049.07 588.74 2059.86 591.461C2070.65 594.183 2079.59 595.543 2086.69 595.543C2104.18 595.543 2117.75 592.288 2127.37 585.776C2137.09 579.264 2141.95 568.184 2141.95 552.536C2141.95 544.664 2140.3 538.152 2136.99 533.001C2133.78 527.849 2129.36 523.719 2123.72 520.609C2118.09 517.499 2107.97 513.952 2093.4 509.966C2080.76 506.759 2070.6 503.601 2062.92 500.49C2055.24 497.283 2048.78 492.375 2043.53 485.766C2038.28 479.06 2035.66 470.069 2035.66 458.795C2035.66 442.564 2041.48 429.541 2053.15 419.724C2064.91 409.908 2080.27 405 2099.23 405C2111.67 405 2123.82 406.798 2135.68 410.394C2140.44 412.144 2144.72 413.942 2148.51 415.788V429.784C2142.58 427.062 2137.48 424.876 2133.2 423.223C2129.02 421.474 2123.92 419.967 2117.89 418.704C2111.96 417.44 2105.45 416.76 2098.35 416.663C2081.54 416.663 2069.04 420.551 2060.88 428.326C2052.81 436.101 2048.78 446.452 2048.78 459.378C2048.78 467.543 2050.53 473.957 2054.03 478.622C2057.62 483.288 2062.44 486.884 2068.46 489.411C2074.49 491.937 2083.48 494.853 2095.43 498.158C2108.85 501.851 2119.35 505.301 2126.93 508.509C2134.51 511.619 2141.07 516.673 2146.62 523.671C2152.25 530.571 2155.07 539.998 2155.07 551.953C2155.07 569.448 2149.05 583.103 2136.99 592.919C2125.03 602.638 2107.97 607.498 2085.81 607.498C2076.67 607.498 2067.15 606.283 2057.23 603.853C2047.32 601.423 2040.42 599.139 2036.53 597.001Z" fill="#0A0092"/>
<path d="M658.395 698.923H647.315C646.889 696.556 646.096 694.473 644.936 692.673C643.776 690.874 642.356 689.347 640.675 688.092C638.994 686.838 637.112 685.891 635.028 685.251C632.969 684.612 630.779 684.293 628.459 684.293C624.268 684.293 620.516 685.346 617.202 687.453C613.911 689.56 611.307 692.65 609.389 696.722C607.495 700.794 606.548 705.765 606.548 711.636C606.548 717.555 607.495 722.55 609.389 726.622C611.307 730.694 613.923 733.772 617.237 735.855C620.552 737.938 624.28 738.98 628.423 738.98C630.72 738.98 632.898 738.672 634.957 738.057C637.041 737.418 638.923 736.482 640.604 735.251C642.285 734.02 643.705 732.517 644.865 730.741C646.049 728.942 646.866 726.883 647.315 724.562L658.395 724.598C657.803 728.173 656.655 731.464 654.95 734.47C653.269 737.453 651.103 740.034 648.452 742.212C645.824 744.366 642.817 746.035 639.432 747.219C636.046 748.402 632.353 748.994 628.352 748.994C622.055 748.994 616.444 747.503 611.52 744.52C606.596 741.513 602.713 737.216 599.872 731.629C597.055 726.042 595.646 719.378 595.646 711.636C595.646 703.871 597.067 697.207 599.908 691.643C602.749 686.056 606.631 681.771 611.555 678.788C616.48 675.782 622.079 674.278 628.352 674.278C632.211 674.278 635.81 674.835 639.148 675.947C642.509 677.036 645.528 678.646 648.203 680.777C650.878 682.884 653.092 685.464 654.844 688.518C656.596 691.549 657.779 695.017 658.395 698.923ZM694.525 748V675.273H720.449C726.083 675.273 730.759 676.243 734.475 678.185C738.216 680.126 741.01 682.813 742.856 686.246C744.703 689.655 745.626 693.597 745.626 698.071C745.626 702.522 744.691 706.44 742.821 709.825C740.974 713.187 738.181 715.803 734.44 717.673C730.723 719.544 726.047 720.479 720.413 720.479H700.775V711.033H719.419C722.97 711.033 725.858 710.524 728.083 709.506C730.333 708.488 731.978 707.008 733.02 705.067C734.061 703.125 734.582 700.794 734.582 698.071C734.582 695.325 734.049 692.946 732.984 690.933C731.942 688.921 730.297 687.382 728.048 686.317C725.823 685.228 722.899 684.683 719.277 684.683H705.498V748H694.525ZM730.427 715.188L748.396 748H735.896L718.282 715.188H730.427ZM792.951 675.273V748H781.978V675.273H792.951ZM892.336 698.923H881.257C880.831 696.556 880.038 694.473 878.877 692.673C877.717 690.874 876.297 689.347 874.616 688.092C872.935 686.838 871.053 685.891 868.97 685.251C866.91 684.612 864.72 684.293 862.4 684.293C858.21 684.293 854.458 685.346 851.143 687.453C847.852 689.56 845.248 692.65 843.331 696.722C841.437 700.794 840.49 705.765 840.49 711.636C840.49 717.555 841.437 722.55 843.331 726.622C845.248 730.694 847.864 733.772 851.179 735.855C854.493 737.938 858.222 738.98 862.365 738.98C864.661 738.98 866.839 738.672 868.899 738.057C870.982 737.418 872.864 736.482 874.545 735.251C876.226 734.02 877.646 732.517 878.806 730.741C879.99 728.942 880.807 726.883 881.257 724.562L892.336 724.598C891.744 728.173 890.596 731.464 888.892 734.47C887.211 737.453 885.045 740.034 882.393 742.212C879.765 744.366 876.759 746.035 873.373 747.219C869.988 748.402 866.295 748.994 862.294 748.994C855.996 748.994 850.386 747.503 845.461 744.52C840.537 741.513 836.654 737.216 833.814 731.629C830.996 726.042 829.588 719.378 829.588 711.636C829.588 703.871 831.008 697.207 833.849 691.643C836.69 686.056 840.573 681.771 845.497 678.788C850.421 675.782 856.02 674.278 862.294 674.278C866.153 674.278 869.751 674.835 873.089 675.947C876.451 677.036 879.469 678.646 882.145 680.777C884.82 682.884 887.033 685.464 888.785 688.518C890.537 691.549 891.721 695.017 892.336 698.923ZM928.467 748V675.273H939.44V710.003H940.327L970.832 675.273H984.646L955.313 708.014L984.752 748H971.542L948.033 715.507L939.44 725.379V748H928.467ZM1017.87 748V675.273H1063.47V684.719H1028.85V706.878H1061.09V716.288H1028.85V738.554H1063.9V748H1017.87ZM1097.54 684.719V675.273H1153.83V684.719H1131.13V748H1120.2V684.719H1097.54ZM1299.13 698.923H1288.05C1287.63 696.556 1286.83 694.473 1285.67 692.673C1284.51 690.874 1283.09 689.347 1281.41 688.092C1279.73 686.838 1277.85 685.891 1275.77 685.251C1273.71 684.612 1271.52 684.293 1269.2 684.293C1265.01 684.293 1261.25 685.346 1257.94 687.453C1254.65 689.56 1252.05 692.65 1250.13 696.722C1248.23 700.794 1247.29 705.765 1247.29 711.636C1247.29 717.555 1248.23 722.55 1250.13 726.622C1252.05 730.694 1254.66 733.772 1257.98 735.855C1261.29 737.938 1265.02 738.98 1269.16 738.98C1271.46 738.98 1273.64 738.672 1275.7 738.057C1277.78 737.418 1279.66 736.482 1281.34 735.251C1283.02 734.02 1284.44 732.517 1285.6 730.741C1286.79 728.942 1287.6 726.883 1288.05 724.562L1299.13 724.598C1298.54 728.173 1297.39 731.464 1295.69 734.47C1294.01 737.453 1291.84 740.034 1289.19 742.212C1286.56 744.366 1283.56 746.035 1280.17 747.219C1276.78 748.402 1273.09 748.994 1269.09 748.994C1262.79 748.994 1257.18 747.503 1252.26 744.52C1247.33 741.513 1243.45 737.216 1240.61 731.629C1237.79 726.042 1236.38 719.378 1236.38 711.636C1236.38 703.871 1237.81 697.207 1240.65 691.643C1243.49 686.056 1247.37 681.771 1252.29 678.788C1257.22 675.782 1262.82 674.278 1269.09 674.278C1272.95 674.278 1276.55 674.835 1279.89 675.947C1283.25 677.036 1286.27 678.646 1288.94 680.777C1291.62 682.884 1293.83 685.464 1295.58 688.518C1297.33 691.549 1298.52 695.017 1299.13 698.923ZM1335.26 748V675.273H1346.24V738.554H1379.19V748H1335.26ZM1461.48 675.273H1472.49V723.107C1472.49 728.196 1471.29 732.706 1468.9 736.636C1466.51 740.543 1463.15 743.62 1458.81 745.869C1454.48 748.095 1449.4 749.207 1443.58 749.207C1437.78 749.207 1432.71 748.095 1428.38 745.869C1424.05 743.62 1420.69 740.543 1418.3 736.636C1415.9 732.706 1414.71 728.196 1414.71 723.107V675.273H1425.68V722.219C1425.68 725.509 1426.4 728.433 1427.85 730.99C1429.32 733.547 1431.39 735.559 1434.06 737.027C1436.74 738.471 1439.91 739.193 1443.58 739.193C1447.27 739.193 1450.46 738.471 1453.13 737.027C1455.83 735.559 1457.89 733.547 1459.31 730.99C1460.76 728.433 1461.48 725.509 1461.48 722.219V675.273ZM1511.44 748V675.273H1538.07C1543.23 675.273 1547.51 676.125 1550.89 677.83C1554.28 679.51 1556.81 681.795 1558.49 684.683C1560.17 687.548 1561.01 690.779 1561.01 694.378C1561.01 697.408 1560.46 699.965 1559.34 702.048C1558.23 704.108 1556.74 705.765 1554.87 707.02C1553.02 708.251 1550.99 709.151 1548.76 709.719V710.429C1551.18 710.547 1553.53 711.329 1555.83 712.773C1558.15 714.193 1560.07 716.217 1561.58 718.845C1563.1 721.473 1563.85 724.669 1563.85 728.433C1563.85 732.15 1562.98 735.488 1561.23 738.447C1559.5 741.383 1556.82 743.715 1553.2 745.443C1549.58 747.148 1544.95 748 1539.32 748H1511.44ZM1522.41 738.589H1538.25C1543.51 738.589 1547.27 737.571 1549.54 735.536C1551.82 733.5 1552.95 730.955 1552.95 727.901C1552.95 725.604 1552.37 723.497 1551.21 721.58C1550.05 719.662 1548.39 718.135 1546.24 716.999C1544.11 715.862 1541.58 715.294 1538.64 715.294H1522.41V738.589ZM1522.41 706.736H1537.11C1539.58 706.736 1541.79 706.262 1543.75 705.315C1545.74 704.368 1547.32 703.043 1548.48 701.338C1549.66 699.61 1550.25 697.574 1550.25 695.23C1550.25 692.223 1549.2 689.702 1547.09 687.666C1544.99 685.63 1541.75 684.612 1537.4 684.612H1522.41V706.736Z" fill="#ECBA3A"/>
<path d="M898 131.436L961.997 273.294H1008.11L949.455 136.053C930.285 138.148 912.545 136.482 898 131.436ZM998.052 123.395C984.985 128.772 971.918 132.485 959.28 134.673L1018.51 273.294H1053.18L1018.7 113.354C1012.03 117.117 1005.13 120.47 998.052 123.395ZM1134.77 109.927L1099.58 273.294H1062.95L1027.38 108.118C1055.04 90.3698 1073.97 67.147 1079.6 44.875C1085.47 67.9071 1105.54 91.9853 1134.77 109.927ZM1098.72 126.25C1098.72 108.121 1090.14 93.4157 1079.6 93.4157C1069.01 93.4157 1060.48 108.121 1060.48 126.25C1060.48 144.38 1069.01 159.085 1079.6 159.085C1090.14 159.085 1098.72 144.38 1098.72 126.25ZM1161.19 123.395C1155.13 120.899 1149.21 118.071 1143.46 114.925L1109.31 273.294H1143.98L1203.02 135.147C1189.42 133.102 1175.31 129.201 1161.19 123.395ZM1212.89 136.339L1154.37 273.294H1193.62L1257 132.768C1244.12 136.529 1229.05 137.766 1212.89 136.339ZM961.997 282.813V314.125L1193.62 313.791V282.811L961.997 282.813Z" fill="#0A0092"/>
</svg>
