<svg width="148" height="48" viewBox="0 0 148 48" fill="none" xmlns="http://www.w3.org/2000/svg">
<path d="M87.5707 15.0003C84.5403 15.0003 81.578 17.7445 81.2373 21.7096V15.3272H76.8855V34.5718H81.2906V25.2566C81.2906 22.6472 83.1402 18.9664 87.5707 18.9664V15.0003Z" fill="black"/>
<path d="M133.779 31.4909V18.3061H136.33C139.733 18.3061 142.498 20.4326 142.498 24.7922C142.498 29.1516 139.733 31.4909 136.33 31.4909H133.779ZM129.419 34.5744H136.862C141.434 34.5744 147.07 31.5972 147.07 24.7922C147.07 18.0934 141.434 15.3289 136.862 15.3289H129.419V34.5744Z" fill="black"/>
<path d="M112.738 25.005C112.738 21.4962 114.546 18.6253 117.523 18.6253C120.394 18.6253 121.989 21.4962 121.989 25.005C121.989 28.5139 120.394 31.3848 117.523 31.3848C114.546 31.3848 112.738 28.5139 112.738 25.005ZM108.273 25.2177C108.273 30.9595 111.25 35 115.928 35C119.33 35 121.351 32.7671 122.414 29.1519V34.5747H126.773V15.3291H122.414V20.4329C121.457 17.0304 119.437 15.0101 116.247 15.0101C111.462 15.0101 108.273 19.3696 108.273 25.2177Z" fill="black"/>
<path d="M8.99865 35C3.57586 35 0.385986 30.6405 0.385986 25.2177C0.385986 19.5823 3.89485 15.0101 10.5936 15.0101C17.505 15.0101 19.8442 19.6886 19.9505 22.3468H14.9531C14.8467 20.8582 13.5708 18.6253 10.4872 18.6253C7.19104 18.6253 5.06447 21.4962 5.06447 25.005C5.06447 28.5139 7.19104 31.3848 10.4872 31.3848C13.4644 31.3848 14.7404 29.0456 15.2721 26.7063H10.4872V24.7923H20.5274V34.5747H16.1227V28.4076C15.8037 30.6405 14.4214 35 8.99865 35Z" fill="black"/>
<path d="M29.4581 34.9998C25.3113 34.9998 22.7594 32.2352 22.7594 26.7061V15.3289H27.2252V26.7061C27.2252 29.5769 28.6075 30.9592 30.9467 30.9592C35.5189 30.9592 37.2202 25.3238 37.2202 21.3896V15.3289H41.686V34.5744H37.3264V27.4504C36.4758 31.3845 34.1366 34.9998 29.4581 34.9998Z" fill="black"/>
<path d="M68.3725 15C64.5623 15 62.1587 18.6806 61.3742 22.0837C61.24 17.5231 58.9973 15 55.4088 15C52.3085 15 49.4322 17.7648 48.6852 22.1388V15.3274H44.3317V34.5734H48.741V27.6738C48.741 25.9633 49.4541 18.9438 53.8927 18.9438C56.7681 18.9438 57.0678 21.5374 57.0678 25.0827V34.5734H61.475V27.6738C61.475 25.9633 62.2176 18.9438 66.6562 18.9438C69.5293 18.9438 69.826 21.5374 69.826 25.0827V34.5734H74.2391V23.1895C74.2592 17.7282 72.3309 15 68.3725 15Z" fill="black"/>
<path d="M97.0304 15C91.3224 15 87.4547 19.4757 87.4547 25C87.4547 31.0869 91.1331 34.9999 97.0304 34.9999C102.738 34.9999 106.675 30.5243 106.675 25C106.675 18.913 102.925 15 97.0304 15ZM97.0304 31.5933C93.7074 31.5933 91.5551 28.78 91.5551 25C91.5551 21.2199 93.7147 18.4066 97.0304 18.4066C100.345 18.4066 102.419 21.2199 102.419 25C102.419 28.78 100.343 31.5933 97.0304 31.5933Z" fill="black"/>
</svg>
