<svg width="521" height="110" viewBox="0 0 521 110" fill="none" xmlns="http://www.w3.org/2000/svg">
<path d="M40.0938 54H24.4062V52.3125H28.7188L24.0312 40.3125H11.4062L6.84375 52.3125H10.1562C10.4062 52.3125 10.6354 52.3333 10.8438 52.375C11.4271 52.5 11.7188 53.0417 11.7188 54H0.34375V52.3125H4.34375L18.0938 16.5H21.9688L36.5938 52.3125H38.5312C38.8229 52.3125 39.0521 52.3333 39.2188 52.375C39.8021 52.5 40.0938 53.0417 40.0938 54ZM23.2812 38.4375L17.6562 23.8125L12.0938 38.4375H23.2812ZM57.0312 52.375C57.2396 52.375 57.4271 52.3958 57.5938 52.4375C58.2188 52.5208 58.5312 53.0417 58.5312 54H41.5938V52.375C42.4271 52.375 43.1146 52.3125 43.6562 52.1875C44.9062 51.8542 45.5312 50.7917 45.5312 49V28.8125H41.5938V27.25H51.9062L52.2812 33.125C52.7812 31.9167 53.4688 30.8333 54.3438 29.875C56.3438 27.7917 58.6146 26.75 61.1562 26.75C61.6562 26.75 62.1562 26.8125 62.6562 26.9375C64.6146 27.4375 65.5938 28.6875 65.5938 30.6875C65.5938 31.1875 65.4896 31.6667 65.2812 32.125C64.6562 33.5833 63.5938 34.3125 62.0938 34.3125C61.6771 34.3125 61.2812 34.25 60.9062 34.125C60.1146 33.875 59.3646 33.0833 58.6562 31.75C58.1146 30.7917 57.5729 30.3125 57.0312 30.3125C56.6979 30.3125 56.3021 30.4583 55.8438 30.75C53.8854 32.125 52.7604 34.8125 52.4688 38.8125V52.375H57.0312ZM79.7812 18.75C79.7812 19.4583 79.6146 20.125 79.2812 20.75C78.4896 22.2083 77.2396 22.9375 75.5312 22.9375C74.8646 22.9375 74.2188 22.7917 73.5938 22.5C72.0521 21.75 71.2812 20.5 71.2812 18.75C71.2812 18.0833 71.4479 17.4167 71.7812 16.75C72.5729 15.2083 73.8229 14.4375 75.5312 14.4375C76.1979 14.4375 76.8438 14.6042 77.4688 14.9375C79.0104 15.7708 79.7812 17.0417 79.7812 18.75ZM68.1562 27.25H79.3438V52.75C79.3438 55.2917 79.0521 57.5208 78.4688 59.4375C77.0104 63.8542 74.1146 66.0625 69.7812 66.0625C68.3229 66.0625 67.0312 65.8125 65.9062 65.3125C63.9479 64.4792 62.9688 63.1875 62.9688 61.4375C62.9688 61.1875 63.0104 60.9167 63.0938 60.625C63.4271 59.375 64.3229 58.75 65.7812 58.75C66.7812 58.75 67.5521 59.0833 68.0938 59.75C68.3021 60.0833 68.6146 61.0417 69.0312 62.625C69.3229 63.8333 69.8854 64.4375 70.7188 64.4375C71.9688 64.3958 72.6146 63.0625 72.6562 60.4375C72.6562 59.8542 72.6146 58.6875 72.5312 56.9375C72.4479 54.2292 72.4062 52.1667 72.4062 50.75V28.8125H68.1562V27.25ZM115.719 52.375C115.969 52.375 116.198 52.3958 116.406 52.4375C116.948 52.5208 117.219 53.0417 117.219 54H106.844L106.531 48.5C106.24 49.125 105.885 49.75 105.469 50.375C103.469 53.2083 100.781 54.625 97.4062 54.625C91.4896 54.5833 88.5104 51.125 88.4688 44.25V28.8125H84.4688V27.25H95.3438V45.25C95.3438 45.7917 95.3854 46.3333 95.4688 46.875C95.8854 50 97.4688 51.5625 100.219 51.5625C101.052 51.5625 101.885 51.3333 102.719 50.875C104.927 49.5417 106.135 47.2083 106.344 43.875L106.406 28.8125H102.656V27.25H113.281V52.375H115.719ZM132.906 52.375C133.156 52.375 133.406 52.3958 133.656 52.4375C134.198 52.5625 134.469 53.0833 134.469 54H120.094V52.375C120.844 52.375 121.49 52.3125 122.031 52.1875C123.406 51.8958 124.094 50.8333 124.094 49V28.8125H120.094V27.25H130.594L130.906 32.4375C131.323 31.5625 131.865 30.7292 132.531 29.9375C134.615 27.5625 137.156 26.375 140.156 26.375C141.406 26.375 142.573 26.6042 143.656 27.0625C147.073 28.4792 148.781 31.6458 148.781 36.5625V52.375H151.219C151.469 52.375 151.719 52.3958 151.969 52.4375C152.51 52.5625 152.781 53.0833 152.781 54H138.469V52.375C139.344 52.375 140.01 52.2917 140.469 52.125C141.427 51.7917 141.906 50.75 141.906 49V35.625C141.906 34.7083 141.802 33.875 141.594 33.125C140.969 30.6667 139.49 29.4375 137.156 29.4375C136.365 29.4375 135.573 29.6458 134.781 30.0625C132.573 31.3125 131.323 33.6042 131.031 36.9375L130.969 52.375H132.906ZM178.219 54.625C174.927 54.5833 172.948 52.6875 172.281 48.9375C171.99 49.6875 171.594 50.4167 171.094 51.125C169.26 53.4583 166.698 54.625 163.406 54.625C162.24 54.625 161.156 54.4583 160.156 54.125C157.031 53.0833 155.469 50.7708 155.469 47.1875C155.51 41.6458 160.99 38.7917 171.906 38.625V34.625C171.906 33.8333 171.865 33.1042 171.781 32.4375C171.365 29.4792 169.906 28 167.406 28C166.74 28 166.135 28.125 165.594 28.375C164.802 28.7917 164.156 29.8542 163.656 31.5625C163.49 32.0625 163.365 32.4167 163.281 32.625C162.698 34.1667 161.656 34.9375 160.156 34.9375C159.781 34.9375 159.406 34.875 159.031 34.75C157.698 34.3333 157.031 33.4167 157.031 32C157.031 31.25 157.26 30.5417 157.719 29.875C159.26 27.5417 162.656 26.375 167.906 26.375C169.073 26.375 170.177 26.4792 171.219 26.6875C176.302 27.6875 178.844 30.875 178.844 36.25V49.375C178.844 51.375 179.323 52.4167 180.281 52.5C181.531 52.4583 182.281 50.9792 182.531 48.0625L184.156 48.125C184.073 49.2917 183.927 50.2917 183.719 51.125C183.01 53.4583 181.177 54.625 178.219 54.625ZM166.281 52C166.781 52 167.323 51.875 167.906 51.625C169.865 50.75 171.198 48.8958 171.906 46.0625V40.375C169.823 40.4167 168.115 40.625 166.781 41C163.948 41.75 162.531 43.5417 162.531 46.375C162.531 46.5833 162.531 46.7917 162.531 47C162.698 50.3333 163.948 52 166.281 52ZM215.969 54H198.281V52.3125H203.281V18.1875H198.281V16.5H218.406C221.698 16.5 224.49 17.2708 226.781 18.8125C229.531 20.6875 230.906 23.1875 230.906 26.3125C230.906 27.3542 230.74 28.3958 230.406 29.4375C229.24 32.8125 226.531 35.0625 222.281 36.1875L232.094 52.375H233.406C233.656 52.375 233.906 52.3958 234.156 52.4375C234.698 52.5625 234.969 53.0833 234.969 54L224.469 54.0625L214.969 36.875H210.969V52.3125H215.969V54ZM215.281 18.1875H210.969V35H215.656C217.115 35 218.406 34.6042 219.531 33.8125C221.656 32.2708 222.719 29.8333 222.719 26.5C222.719 25.2083 222.51 24 222.094 22.875C220.927 19.75 218.656 18.1875 215.281 18.1875ZM259.281 54.625C255.99 54.5833 254.01 52.6875 253.344 48.9375C253.052 49.6875 252.656 50.4167 252.156 51.125C250.323 53.4583 247.76 54.625 244.469 54.625C243.302 54.625 242.219 54.4583 241.219 54.125C238.094 53.0833 236.531 50.7708 236.531 47.1875C236.573 41.6458 242.052 38.7917 252.969 38.625V34.625C252.969 33.8333 252.927 33.1042 252.844 32.4375C252.427 29.4792 250.969 28 248.469 28C247.802 28 247.198 28.125 246.656 28.375C245.865 28.7917 245.219 29.8542 244.719 31.5625C244.552 32.0625 244.427 32.4167 244.344 32.625C243.76 34.1667 242.719 34.9375 241.219 34.9375C240.844 34.9375 240.469 34.875 240.094 34.75C238.76 34.3333 238.094 33.4167 238.094 32C238.094 31.25 238.323 30.5417 238.781 29.875C240.323 27.5417 243.719 26.375 248.969 26.375C250.135 26.375 251.24 26.4792 252.281 26.6875C257.365 27.6875 259.906 30.875 259.906 36.25V49.375C259.906 51.375 260.385 52.4167 261.344 52.5C262.594 52.4583 263.344 50.9792 263.594 48.0625L265.219 48.125C265.135 49.2917 264.99 50.2917 264.781 51.125C264.073 53.4583 262.24 54.625 259.281 54.625ZM247.344 52C247.844 52 248.385 51.875 248.969 51.625C250.927 50.75 252.26 48.8958 252.969 46.0625V40.375C250.885 40.4167 249.177 40.625 247.844 41C245.01 41.75 243.594 43.5417 243.594 46.375C243.594 46.5833 243.594 46.7917 243.594 47C243.76 50.3333 245.01 52 247.344 52ZM279.781 52.375C280.031 52.375 280.281 52.3958 280.531 52.4375C281.073 52.5625 281.344 53.0833 281.344 54H266.969V52.375C267.719 52.375 268.365 52.3125 268.906 52.1875C270.281 51.8958 270.969 50.8333 270.969 49V28.8125H266.969V27.25H277.469L277.781 32.4375C278.198 31.5625 278.74 30.7292 279.406 29.9375C281.49 27.5625 284.031 26.375 287.031 26.375C288.281 26.375 289.448 26.6042 290.531 27.0625C293.948 28.4792 295.656 31.6458 295.656 36.5625V52.375H298.094C298.344 52.375 298.594 52.3958 298.844 52.4375C299.385 52.5625 299.656 53.0833 299.656 54H285.344V52.375C286.219 52.375 286.885 52.2917 287.344 52.125C288.302 51.7917 288.781 50.75 288.781 49V35.625C288.781 34.7083 288.677 33.875 288.469 33.125C287.844 30.6667 286.365 29.4375 284.031 29.4375C283.24 29.4375 282.448 29.6458 281.656 30.0625C279.448 31.3125 278.198 33.6042 277.906 36.9375L277.844 52.375H279.781ZM325.094 54.625C321.802 54.5833 319.823 52.6875 319.156 48.9375C318.865 49.6875 318.469 50.4167 317.969 51.125C316.135 53.4583 313.573 54.625 310.281 54.625C309.115 54.625 308.031 54.4583 307.031 54.125C303.906 53.0833 302.344 50.7708 302.344 47.1875C302.385 41.6458 307.865 38.7917 318.781 38.625V34.625C318.781 33.8333 318.74 33.1042 318.656 32.4375C318.24 29.4792 316.781 28 314.281 28C313.615 28 313.01 28.125 312.469 28.375C311.677 28.7917 311.031 29.8542 310.531 31.5625C310.365 32.0625 310.24 32.4167 310.156 32.625C309.573 34.1667 308.531 34.9375 307.031 34.9375C306.656 34.9375 306.281 34.875 305.906 34.75C304.573 34.3333 303.906 33.4167 303.906 32C303.906 31.25 304.135 30.5417 304.594 29.875C306.135 27.5417 309.531 26.375 314.781 26.375C315.948 26.375 317.052 26.4792 318.094 26.6875C323.177 27.6875 325.719 30.875 325.719 36.25V49.375C325.719 51.375 326.198 52.4167 327.156 52.5C328.406 52.4583 329.156 50.9792 329.406 48.0625L331.031 48.125C330.948 49.2917 330.802 50.2917 330.594 51.125C329.885 53.4583 328.052 54.625 325.094 54.625ZM313.156 52C313.656 52 314.198 51.875 314.781 51.625C316.74 50.75 318.073 48.8958 318.781 46.0625V40.375C316.698 40.4167 314.99 40.625 313.656 41C310.823 41.75 309.406 43.5417 309.406 46.375C309.406 46.5833 309.406 46.7917 309.406 47C309.573 50.3333 310.823 52 313.156 52ZM332.406 29.0625V27.4375H336.719V21.5L343.594 20.1875V27.4375H352.344V29.0625H343.594V48C343.594 48.4167 343.615 48.8333 343.656 49.25C343.948 51.625 344.969 52.8125 346.719 52.8125C348.76 52.7708 350.24 50.8958 351.156 47.1875L352.844 47.4375C352.594 48.7292 352.26 49.8333 351.844 50.75C350.677 53.375 348.448 54.6875 345.156 54.6875C339.906 54.4792 337.094 51.3542 336.719 45.3125V29.0625H332.406ZM367.594 52.375C367.844 52.375 368.094 52.3958 368.344 52.4375C368.885 52.5625 369.156 53.0833 369.156 54H354.656V52.375C355.365 52.375 355.969 52.3333 356.469 52.25C357.927 51.9583 358.656 50.875 358.656 49V15H354.656V13.375H365.531V32.4375C365.865 31.6458 366.302 30.875 366.844 30.125C368.844 27.625 371.531 26.375 374.906 26.375C376.115 26.375 377.24 26.5833 378.281 27C381.656 28.4167 383.344 31.6042 383.344 36.5625V52.375H385.719C385.969 52.375 386.219 52.3958 386.469 52.4375C387.01 52.5625 387.281 53.0833 387.281 54H373.406V52.375C374.365 52.375 375.073 52.2708 375.531 52.0625C376.156 51.7292 376.469 50.7083 376.469 49V35.8125C376.469 34.9375 376.385 34.1458 376.219 33.4375C375.552 30.8542 374.01 29.5625 371.594 29.5625C370.76 29.5625 369.927 29.7917 369.094 30.25C366.719 31.625 365.531 34.1667 365.531 37.875V52.375H367.594ZM420.781 52.375C421.031 52.375 421.26 52.3958 421.469 52.4375C422.01 52.5208 422.281 53.0417 422.281 54H411.906L411.594 48.5C411.302 49.125 410.948 49.75 410.531 50.375C408.531 53.2083 405.844 54.625 402.469 54.625C396.552 54.5833 393.573 51.125 393.531 44.25V28.8125H389.531V27.25H400.406V45.25C400.406 45.7917 400.448 46.3333 400.531 46.875C400.948 50 402.531 51.5625 405.281 51.5625C406.115 51.5625 406.948 51.3333 407.781 50.875C409.99 49.5417 411.198 47.2083 411.406 43.875L411.469 28.8125H407.719V27.25H418.344V52.375H420.781ZM437.969 52.375C438.219 52.375 438.469 52.3958 438.719 52.4375C439.26 52.5625 439.531 53.0833 439.531 54H425.156V52.375C425.906 52.375 426.552 52.3125 427.094 52.1875C428.469 51.8958 429.156 50.8333 429.156 49V28.8125H425.156V27.25H435.656L435.969 32.4375C436.385 31.5625 436.927 30.7292 437.594 29.9375C439.677 27.5625 442.219 26.375 445.219 26.375C446.469 26.375 447.635 26.6042 448.719 27.0625C452.135 28.4792 453.844 31.6458 453.844 36.5625V52.375H456.281C456.531 52.375 456.781 52.3958 457.031 52.4375C457.573 52.5625 457.844 53.0833 457.844 54H443.531V52.375C444.406 52.375 445.073 52.2917 445.531 52.125C446.49 51.7917 446.969 50.75 446.969 49V35.625C446.969 34.7083 446.865 33.875 446.656 33.125C446.031 30.6667 444.552 29.4375 442.219 29.4375C441.427 29.4375 440.635 29.6458 439.844 30.0625C437.635 31.3125 436.385 33.6042 436.094 36.9375L436.031 52.375H437.969ZM468.781 36.75C468.781 38.875 468.906 40.5208 469.156 41.6875C469.74 44.2292 471.24 45.5 473.656 45.5C474.823 45.5 475.781 45.2292 476.531 44.6875C477.948 43.6042 478.656 40.9167 478.656 36.625C478.656 34.4167 478.51 32.7292 478.219 31.5625C477.635 29.1875 476.135 28 473.719 28C472.469 28 471.49 28.2917 470.781 28.875C469.448 29.9167 468.781 32.5417 468.781 36.75ZM473.906 26.375C476.615 26.375 478.948 26.9583 480.906 28.125C481.073 27.5833 481.302 27.0417 481.594 26.5C482.802 24.25 484.448 23.125 486.531 23.125C487.198 23.125 487.823 23.2292 488.406 23.4375C489.823 24.0208 490.531 25.0417 490.531 26.5C490.531 26.6667 490.51 26.8542 490.469 27.0625C490.219 28.1875 489.51 28.75 488.344 28.75C487.885 28.75 487.365 28.5208 486.781 28.0625C485.99 27.3542 485.323 27 484.781 27C483.656 27.0417 482.802 27.7292 482.219 29.0625C484.469 30.9792 485.615 33.4583 485.656 36.5C485.656 38.7917 484.948 40.875 483.531 42.75C481.281 45.6667 477.99 47.125 473.656 47.125H473.469L467.344 47.0625C467.135 47.0625 466.906 47.0833 466.656 47.125C465.531 47.3333 464.969 47.9167 464.969 48.875C464.969 49 464.99 49.1458 465.031 49.3125C465.24 50.3542 465.99 50.8958 467.281 50.9375L479.719 51.1875C480.427 51.1875 481.115 51.25 481.781 51.375C485.99 52.0417 488.094 54.2917 488.094 58.125C488.094 59.25 487.781 60.3333 487.156 61.375C485.115 64.5 480.76 66.0625 474.094 66.0625C471.385 66.0625 469.073 65.6875 467.156 64.9375C464.281 63.8125 462.844 62.125 462.844 59.875C462.844 58.5 463.427 57.1667 464.594 55.875C463.01 54.6667 462.198 53.0417 462.156 51C462.156 50.2083 462.302 49.4375 462.594 48.6875C463.51 46.4792 465.177 45.3958 467.594 45.4375C467.135 45.1458 466.677 44.8333 466.219 44.5C463.26 42.2917 461.781 39.6667 461.781 36.625C461.781 34.375 462.448 32.3958 463.781 30.6875C466.031 27.8125 469.406 26.375 473.906 26.375ZM474.094 64.4375C476.094 64.4375 477.948 64.25 479.656 63.875C483.281 63.0833 485.094 61.7292 485.094 59.8125C485.094 59.3958 485.01 59.0208 484.844 58.6875C484.427 57.7708 482.885 57.2917 480.219 57.25L468.531 57.125C467.74 57.125 466.927 56.9792 466.094 56.6875C465.385 57.6458 465.01 58.6042 464.969 59.5625C464.969 60.1042 465.094 60.625 465.344 61.125C466.469 63.3333 469.385 64.4375 474.094 64.4375ZM514.406 54.625C511.115 54.5833 509.135 52.6875 508.469 48.9375C508.177 49.6875 507.781 50.4167 507.281 51.125C505.448 53.4583 502.885 54.625 499.594 54.625C498.427 54.625 497.344 54.4583 496.344 54.125C493.219 53.0833 491.656 50.7708 491.656 47.1875C491.698 41.6458 497.177 38.7917 508.094 38.625V34.625C508.094 33.8333 508.052 33.1042 507.969 32.4375C507.552 29.4792 506.094 28 503.594 28C502.927 28 502.323 28.125 501.781 28.375C500.99 28.7917 500.344 29.8542 499.844 31.5625C499.677 32.0625 499.552 32.4167 499.469 32.625C498.885 34.1667 497.844 34.9375 496.344 34.9375C495.969 34.9375 495.594 34.875 495.219 34.75C493.885 34.3333 493.219 33.4167 493.219 32C493.219 31.25 493.448 30.5417 493.906 29.875C495.448 27.5417 498.844 26.375 504.094 26.375C505.26 26.375 506.365 26.4792 507.406 26.6875C512.49 27.6875 515.031 30.875 515.031 36.25V49.375C515.031 51.375 515.51 52.4167 516.469 52.5C517.719 52.4583 518.469 50.9792 518.719 48.0625L520.344 48.125C520.26 49.2917 520.115 50.2917 519.906 51.125C519.198 53.4583 517.365 54.625 514.406 54.625ZM502.469 52C502.969 52 503.51 51.875 504.094 51.625C506.052 50.75 507.385 48.8958 508.094 46.0625V40.375C506.01 40.4167 504.302 40.625 502.969 41C500.135 41.75 498.719 43.5417 498.719 46.375C498.719 46.5833 498.719 46.7917 498.719 47C498.885 50.3333 500.135 52 502.469 52Z" fill="#C3922E"/>
<path d="M165.531 97.7188C163.594 98.7604 161.552 99.2917 159.406 99.3125C156.427 99.3125 154.021 98.3438 152.188 96.4062C150.458 94.5729 149.594 92.3021 149.594 89.5938C149.594 87.3438 150.24 85.3438 151.531 83.5938C153.344 81.1562 155.969 79.9375 159.406 79.9375C161.677 79.9375 163.677 80.4688 165.406 81.5312C165.406 81.1354 165.427 80.8333 165.469 80.625C165.573 80.2708 165.885 80.0938 166.406 80.0938L166.5 86.125H165.5C165.312 85.4583 165.104 84.8542 164.875 84.3125C163.833 82 162.135 80.8438 159.781 80.8438C159.052 80.8438 158.375 80.9583 157.75 81.1875C155.208 82.1875 153.938 84.9688 153.938 89.5312C153.958 95.4062 155.844 98.3646 159.594 98.4062C159.948 98.4062 160.302 98.3854 160.656 98.3438C163.115 97.9896 164.781 96.2396 165.656 93.0938H166.594V99.1562C166.365 99.1562 166.177 99.1354 166.031 99.0938C165.677 98.9896 165.51 98.5312 165.531 97.7188ZM175.938 98.1875C176.042 98.1875 176.135 98.1979 176.219 98.2188C176.531 98.2604 176.688 98.5208 176.688 99H168.219V98.1875C168.635 98.1875 168.979 98.1562 169.25 98.0938C169.875 97.9271 170.188 97.3958 170.188 96.5V86.4062H168.219V85.625H173.375L173.562 88.5625C173.812 87.9583 174.156 87.4167 174.594 86.9375C175.594 85.8958 176.729 85.375 178 85.375C178.25 85.375 178.5 85.4062 178.75 85.4688C179.729 85.7188 180.219 86.3438 180.219 87.3438C180.219 87.5938 180.167 87.8333 180.062 88.0625C179.75 88.7917 179.219 89.1562 178.469 89.1562C178.26 89.1562 178.062 89.125 177.875 89.0625C177.479 88.9375 177.104 88.5417 176.75 87.875C176.479 87.3958 176.208 87.1562 175.938 87.1562C175.771 87.1562 175.573 87.2292 175.344 87.375C174.365 88.0625 173.802 89.4062 173.656 91.4062V98.1875H175.938ZM187.969 98.1875C188.073 98.1875 188.167 98.1979 188.25 98.2188C188.562 98.2604 188.719 98.5208 188.719 99H181.219V98.1875C181.635 98.1875 181.969 98.1562 182.219 98.0938C182.906 97.9271 183.25 97.3958 183.25 96.5V86.4062H181.219V85.625H186.688V98.1875H187.969ZM187 81.375C187 81.7292 186.917 82.0625 186.75 82.375C186.354 83.1042 185.729 83.4688 184.875 83.4688C184.542 83.4688 184.219 83.3958 183.906 83.25C183.135 82.875 182.75 82.25 182.75 81.375C182.75 81.0417 182.833 80.7083 183 80.375C183.396 79.6042 184.021 79.2188 184.875 79.2188C185.208 79.2188 185.531 79.3021 185.844 79.4688C186.615 79.8854 187 80.5208 187 81.375ZM190.5 92.3438C190.5 90.4688 191.021 88.8958 192.062 87.625C193.375 86 195.198 85.1875 197.531 85.1875C199.01 85.1875 200.281 85.5 201.344 86.125C202.49 86.8125 203.062 87.625 203.062 88.5625C203.062 88.7083 203.042 88.8646 203 89.0312C202.771 89.7604 202.188 90.125 201.25 90.125C200.833 90.1042 200.49 90.0104 200.219 89.8438C199.865 89.5938 199.615 89.0104 199.469 88.0938C199.427 87.7188 199.385 87.4375 199.344 87.25C199.115 86.3958 198.51 85.9688 197.531 85.9688C197.302 85.9688 197.062 85.9896 196.812 86.0312C195.125 86.4271 194.281 88.5312 194.281 92.3438C194.302 96.3438 195.542 98.3646 198 98.4062C198.438 98.4062 198.854 98.3542 199.25 98.25C200.771 97.8958 201.854 97.0312 202.5 95.6562L203.312 95.875C203.125 96.375 202.854 96.8333 202.5 97.25C201.354 98.625 199.698 99.3125 197.531 99.3125C196.094 99.3125 194.823 99.0104 193.719 98.4062C191.573 97.2188 190.5 95.1979 190.5 92.3438ZM211.469 98.1875C211.573 98.1875 211.667 98.1979 211.75 98.2188C212.062 98.2604 212.219 98.5208 212.219 99H204.094V98.1875C204.469 98.1875 204.792 98.1667 205.062 98.125C206 97.9792 206.469 97.4375 206.469 96.5V79.5H204.094V78.6875H209.906V92.1875L216.031 86.4062H213.719V85.625H219.031C219.031 85.7292 219.021 85.8333 219 85.9375C218.958 86.25 218.698 86.4062 218.219 86.4062C218.01 86.4062 217.823 86.4271 217.656 86.4688C217.281 86.5521 216.74 86.9375 216.031 87.625L213.531 90L218.531 98.1875H219.219C219.344 98.1875 219.458 98.1979 219.562 98.2188C219.833 98.2604 219.969 98.5208 219.969 99L215.125 99.0312L211.125 92.2812L209.906 93.4375V98.1875H211.469ZM227.531 86C227.302 86 227.062 86.0312 226.812 86.0938C225.333 86.5521 224.552 88.2604 224.469 91.2188L226.875 91.3125C227.75 91.3333 228.417 91.2812 228.875 91.1562C229.583 90.9062 229.938 90.2917 229.938 89.3125C229.938 88.9583 229.906 88.6146 229.844 88.2812C229.594 86.7604 228.823 86 227.531 86ZM233.25 95.8438C233.125 96.1562 232.969 96.4688 232.781 96.7812C231.719 98.4688 230 99.3125 227.625 99.3125C226.229 99.3125 224.969 99 223.844 98.375C221.74 97.1458 220.688 95.1042 220.688 92.25C220.688 90.5 221.135 89.0104 222.031 87.7812C223.302 86.0521 225.135 85.1875 227.531 85.1875C228.844 85.1875 230.021 85.4375 231.062 85.9375C232.729 86.7708 233.562 88.0104 233.562 89.6562C233.562 90.1146 233.458 90.5104 233.25 90.8438C232.625 91.8021 230.75 92.25 227.625 92.1875L224.469 92.125C224.469 92.1458 224.469 92.1667 224.469 92.1875C224.573 96.3333 225.844 98.4062 228.281 98.4062C228.74 98.4062 229.188 98.3333 229.625 98.1875C230.938 97.7708 231.896 96.9062 232.5 95.5938L233.25 95.8438ZM234.938 86.5312V85.7188H237.094V82.75L240.531 82.0938V85.7188H244.906V86.5312H240.531V96C240.531 96.2083 240.542 96.4167 240.562 96.625C240.708 97.8125 241.219 98.4062 242.094 98.4062C243.115 98.3854 243.854 97.4479 244.312 95.5938L245.156 95.7188C245.031 96.3646 244.865 96.9167 244.656 97.375C244.073 98.6875 242.958 99.3438 241.312 99.3438C238.688 99.2396 237.281 97.6771 237.094 94.6562V86.5312H234.938ZM271.281 99H263.438V98.1562H265.594L263.25 92.1562H256.938L254.656 98.1562H256.312C256.438 98.1562 256.552 98.1667 256.656 98.1875C256.948 98.25 257.094 98.5208 257.094 99H251.406V98.1562H253.406L260.281 80.25H262.219L269.531 98.1562H270.5C270.646 98.1562 270.76 98.1667 270.844 98.1875C271.135 98.25 271.281 98.5208 271.281 99ZM262.875 91.2188L260.062 83.9062L257.281 91.2188H262.875ZM272.312 92.3438C272.312 90.4688 272.833 88.8958 273.875 87.625C275.188 86 277.01 85.1875 279.344 85.1875C280.823 85.1875 282.094 85.5 283.156 86.125C284.302 86.8125 284.875 87.625 284.875 88.5625C284.875 88.7083 284.854 88.8646 284.812 89.0312C284.583 89.7604 284 90.125 283.062 90.125C282.646 90.1042 282.302 90.0104 282.031 89.8438C281.677 89.5938 281.427 89.0104 281.281 88.0938C281.24 87.7188 281.198 87.4375 281.156 87.25C280.927 86.3958 280.323 85.9688 279.344 85.9688C279.115 85.9688 278.875 85.9896 278.625 86.0312C276.938 86.4271 276.094 88.5312 276.094 92.3438C276.115 96.3438 277.354 98.3646 279.812 98.4062C280.25 98.4062 280.667 98.3542 281.062 98.25C282.583 97.8958 283.667 97.0312 284.312 95.6562L285.125 95.875C284.938 96.375 284.667 96.8333 284.312 97.25C283.167 98.625 281.51 99.3125 279.344 99.3125C277.906 99.3125 276.635 99.0104 275.531 98.4062C273.385 97.2188 272.312 95.1979 272.312 92.3438ZM297.438 99.3125C295.792 99.2917 294.802 98.3438 294.469 96.4688C294.323 96.8438 294.125 97.2083 293.875 97.5625C292.958 98.7292 291.677 99.3125 290.031 99.3125C289.448 99.3125 288.906 99.2292 288.406 99.0625C286.844 98.5417 286.062 97.3854 286.062 95.5938C286.083 92.8229 288.823 91.3958 294.281 91.3125V89.3125C294.281 88.9167 294.26 88.5521 294.219 88.2188C294.01 86.7396 293.281 86 292.031 86C291.698 86 291.396 86.0625 291.125 86.1875C290.729 86.3958 290.406 86.9271 290.156 87.7812C290.073 88.0312 290.01 88.2083 289.969 88.3125C289.677 89.0833 289.156 89.4688 288.406 89.4688C288.219 89.4688 288.031 89.4375 287.844 89.375C287.177 89.1667 286.844 88.7083 286.844 88C286.844 87.625 286.958 87.2708 287.188 86.9375C287.958 85.7708 289.656 85.1875 292.281 85.1875C292.865 85.1875 293.417 85.2396 293.938 85.3438C296.479 85.8438 297.75 87.4375 297.75 90.125V96.6875C297.75 97.6875 297.99 98.2083 298.469 98.25C299.094 98.2292 299.469 97.4896 299.594 96.0312L300.406 96.0625C300.365 96.6458 300.292 97.1458 300.188 97.5625C299.833 98.7292 298.917 99.3125 297.438 99.3125ZM291.469 98C291.719 98 291.99 97.9375 292.281 97.8125C293.26 97.375 293.927 96.4479 294.281 95.0312V92.1875C293.24 92.2083 292.385 92.3125 291.719 92.5C290.302 92.875 289.594 93.7708 289.594 95.1875C289.594 95.2917 289.594 95.3958 289.594 95.5C289.677 97.1667 290.302 98 291.469 98ZM312.375 99L312 95.9688C311.938 96.1354 311.854 96.3125 311.75 96.5C310.792 98.375 309.292 99.3125 307.25 99.3125C306.104 99.3125 305.062 98.9792 304.125 98.3125C302.438 97.0833 301.594 95.1771 301.594 92.5938C301.594 90.6771 302.083 89.0417 303.062 87.6875C304.292 86.0208 305.938 85.1875 308 85.1875C309.542 85.1875 310.844 85.6771 311.906 86.6562V79.5H309.031V78.6875H315.375V98.1875H316.844C317.01 98.1875 317.146 98.1979 317.25 98.2188C317.5 98.2812 317.625 98.5417 317.625 99H312.375ZM305.375 92.2188C305.375 93.0729 305.438 93.8542 305.562 94.5625C305.979 96.8125 306.958 97.9375 308.5 97.9375C309.062 97.9375 309.573 97.7708 310.031 97.4375C311.323 96.4792 311.969 94.5417 311.969 91.625C311.969 90.625 311.875 89.7396 311.688 88.9688C311.208 87.0729 310.25 86.125 308.812 86.125C308.333 86.125 307.875 86.25 307.438 86.5C306.062 87.3125 305.375 89.2188 305.375 92.2188ZM326.062 86C325.833 86 325.594 86.0312 325.344 86.0938C323.865 86.5521 323.083 88.2604 323 91.2188L325.406 91.3125C326.281 91.3333 326.948 91.2812 327.406 91.1562C328.115 90.9062 328.469 90.2917 328.469 89.3125C328.469 88.9583 328.438 88.6146 328.375 88.2812C328.125 86.7604 327.354 86 326.062 86ZM331.781 95.8438C331.656 96.1562 331.5 96.4688 331.312 96.7812C330.25 98.4688 328.531 99.3125 326.156 99.3125C324.76 99.3125 323.5 99 322.375 98.375C320.271 97.1458 319.219 95.1042 319.219 92.25C319.219 90.5 319.667 89.0104 320.562 87.7812C321.833 86.0521 323.667 85.1875 326.062 85.1875C327.375 85.1875 328.552 85.4375 329.594 85.9375C331.26 86.7708 332.094 88.0104 332.094 89.6562C332.094 90.1146 331.99 90.5104 331.781 90.8438C331.156 91.8021 329.281 92.25 326.156 92.1875L323 92.125C323 92.1458 323 92.1667 323 92.1875C323.104 96.3333 324.375 98.4062 326.812 98.4062C327.271 98.4062 327.719 98.3333 328.156 98.1875C329.469 97.7708 330.427 96.9062 331.031 95.5938L331.781 95.8438ZM339.938 98.1875C340.042 98.1875 340.135 98.1979 340.219 98.2188C340.531 98.2604 340.688 98.5208 340.688 99H333.656V98.1875C334.031 98.1875 334.354 98.1562 334.625 98.0938C335.312 97.9479 335.656 97.4167 335.656 96.5V86.4062H333.656V85.625H338.906L339.062 88.125C339.146 87.9583 339.229 87.7917 339.312 87.625C340.25 86 341.635 85.1875 343.469 85.1875C343.823 85.1875 344.167 85.2396 344.5 85.3438C345.792 85.7396 346.667 86.7083 347.125 88.25C347.146 88.1875 347.177 88.1146 347.219 88.0312C348.198 86.1354 349.667 85.1875 351.625 85.1875C352.354 85.1875 353.031 85.3854 353.656 85.7812C355.031 86.6354 355.719 88.0938 355.719 90.1562V98.1875H356.906C357.031 98.1875 357.156 98.1979 357.281 98.2188C357.552 98.2812 357.688 98.5417 357.688 99H350.656V98.1875C351.115 98.1875 351.458 98.1354 351.688 98.0312C352.083 97.8646 352.281 97.3542 352.281 96.5V89.8125C352.281 89.25 352.208 88.7292 352.062 88.25C351.688 87.1875 351.021 86.6562 350.062 86.6562C349.792 86.6562 349.521 86.7188 349.25 86.8438C348.25 87.3229 347.635 88.3333 347.406 89.875V90.2812V98.1875H348.219C348.344 98.1875 348.469 98.1979 348.594 98.2188C348.865 98.2812 349 98.5417 349 99H342.344V98.1875C342.802 98.1875 343.146 98.1354 343.375 98.0312C343.771 97.8646 343.969 97.3542 343.969 96.5V89.8125C343.969 89.2292 343.896 88.7083 343.75 88.25C343.396 87.2292 342.792 86.7188 341.938 86.7188C341.604 86.7188 341.271 86.8125 340.938 87C339.875 87.6042 339.271 88.7604 339.125 90.4688L339.094 98.1875H339.938ZM362.062 104C362.292 104 362.521 103.958 362.75 103.875C363.729 103.5 364.75 102.021 365.812 99.4375L359.875 86.4062H358.469V85.625H365.438V86.4062H363.469L367.375 95.5312L371 86.4062H368.656V85.625H373.469C373.469 85.7708 373.458 85.8958 373.438 86C373.375 86.2708 373.125 86.4062 372.688 86.4062C372.583 86.4062 372.49 86.4167 372.406 86.4375C372.115 86.5 371.854 86.8125 371.625 87.375L366.969 99.2812C366.552 100.344 366.115 101.25 365.656 102C364.469 104.021 363.021 105.031 361.312 105.031C360.667 105.031 360.073 104.906 359.531 104.656C358.656 104.24 358.219 103.667 358.219 102.938C358.219 102.812 358.24 102.677 358.281 102.531C358.469 101.927 358.917 101.625 359.625 101.625C359.958 101.625 360.24 101.708 360.469 101.875C360.698 102.042 360.948 102.479 361.219 103.188C361.427 103.729 361.708 104 362.062 104Z" fill="#40311C"/>
</svg>
