<svg width="696" height="123" viewBox="0 0 696 123" fill="none" xmlns="http://www.w3.org/2000/svg">
<g clip-path="url(#clip0_2057_622)">
<path d="M139.374 96.0665C134.462 96.0665 129.947 94.9149 125.829 92.6119C121.76 90.3086 118.511 87.1044 116.08 82.9987C113.698 78.8433 112.507 74.187 112.507 69.0298C112.507 63.8729 113.698 59.2417 116.08 55.136C118.511 51.0305 121.76 47.8261 125.829 45.5231C129.947 43.22 134.462 42.0685 139.374 42.0685C144.286 42.0685 148.776 43.22 152.845 45.5231C156.963 47.8261 160.188 51.0305 162.52 55.136C164.901 59.2417 166.092 63.8729 166.092 69.0298C166.092 74.187 164.901 78.8433 162.52 82.9987C160.138 87.1044 156.913 90.3086 152.845 92.6119C148.776 94.9149 144.286 96.0665 139.374 96.0665ZM139.374 84.3507C143.542 84.3507 146.866 82.9488 149.347 80.1449C151.877 77.3412 153.142 73.6362 153.142 69.0298C153.142 64.3735 151.877 60.6685 149.347 57.9148C146.866 55.1112 143.542 53.7092 139.374 53.7092C135.157 53.7092 131.783 55.0861 129.252 57.8398C126.772 60.5935 125.531 64.3236 125.531 69.0298C125.531 73.6861 126.772 77.4162 129.252 80.2201C131.783 82.9739 135.157 84.3507 139.374 84.3507Z" fill="#10B981"/>
<path d="M214.18 53.6339V95.5407H201.453V89.8331C200.163 91.6854 198.402 93.1875 196.169 94.339C193.986 95.4406 191.555 95.9914 188.876 95.9914C185.7 95.9914 182.897 95.2903 180.466 93.8886C178.035 92.4365 176.149 90.3588 174.81 87.6552C173.47 84.9514 172.8 81.7721 172.8 78.1173V53.6339H185.452V76.3899C185.452 79.1936 186.172 81.3716 187.61 82.9237C189.049 84.4757 190.984 85.2518 193.415 85.2518C195.896 85.2518 197.856 84.4757 199.295 82.9237C200.734 81.3716 201.453 79.1936 201.453 76.3899V53.6339H214.18Z" fill="#10B981"/>
<path d="M246.468 84.651V95.5407H239.992C235.378 95.5407 231.781 94.4143 229.2 92.1611C226.621 89.8581 225.33 86.128 225.33 80.9711V64.2984H220.27V53.6338H225.33V43.4202H238.057V53.6338H246.391V64.2984H238.057V81.1211C238.057 82.3728 238.355 83.2741 238.95 83.8249C239.545 84.3755 240.538 84.651 241.927 84.651H246.468Z" fill="#10B981"/>
<path d="M266.283 59.5672C267.473 57.6145 269.185 56.0374 271.418 54.8357C273.651 53.634 276.206 53.0332 279.084 53.0332C282.507 53.0332 285.608 53.9095 288.385 55.6617C291.164 57.4142 293.348 59.9175 294.934 63.1719C296.572 66.4264 297.391 70.2065 297.391 74.5125C297.391 78.8182 296.572 82.6233 294.934 85.9279C293.348 89.1822 291.164 91.7106 288.385 93.513C285.608 95.2655 282.507 96.1415 279.084 96.1415C276.155 96.1415 273.599 95.5659 271.418 94.4144C269.234 93.2126 267.522 91.6355 266.283 89.6828V95.5408H253.556V39.9655H266.283V59.5672ZM284.44 74.5125C284.44 71.3081 283.547 68.8045 281.762 67.0021C280.026 65.1497 277.866 64.2235 275.286 64.2235C272.756 64.2235 270.599 65.1497 268.813 67.0021C267.075 68.8547 266.207 71.3831 266.207 74.5875C266.207 77.7919 267.075 80.3203 268.813 82.1727C270.599 84.0253 272.756 84.9515 275.286 84.9515C277.817 84.9515 279.976 84.0253 281.762 82.1727C283.547 80.2701 284.44 77.7166 284.44 74.5125Z" fill="#10B981"/>
<path d="M322.971 96.1415C318.903 96.1415 315.231 95.2655 311.956 93.513C308.731 91.7607 306.176 89.2572 304.292 86.0029C302.455 82.7485 301.538 78.9434 301.538 74.5875C301.538 70.2815 302.48 66.5015 304.366 63.2471C306.25 59.9426 308.83 57.4142 312.106 55.6617C315.379 53.9095 319.051 53.0332 323.121 53.0332C327.189 53.0332 330.861 53.9095 334.134 55.6617C337.41 57.4142 339.99 59.9426 341.874 63.2471C343.76 66.5015 344.702 70.2815 344.702 74.5875C344.702 78.8932 343.735 82.6983 341.8 86.0029C339.916 89.2572 337.309 91.7607 333.987 93.513C330.711 95.2655 327.039 96.1415 322.971 96.1415ZM322.971 85.0265C325.403 85.0265 327.462 84.1254 329.149 82.3229C330.885 80.5205 331.753 77.9419 331.753 74.5875C331.753 71.2328 330.91 68.6544 329.223 66.852C327.585 65.0496 325.551 64.1482 323.121 64.1482C320.64 64.1482 318.581 65.0496 316.943 66.852C315.305 68.6043 314.486 71.1828 314.486 74.5875C314.486 77.9419 315.281 80.5205 316.869 82.3229C318.505 84.1254 320.541 85.0265 322.971 85.0265Z" fill="#10B981"/>
<path d="M392.463 53.6339V95.5407H379.736V89.8331C378.444 91.6854 376.684 93.1875 374.45 94.339C372.269 95.4406 369.837 95.9914 367.158 95.9914C363.983 95.9914 361.18 95.2903 358.747 93.8886C356.318 92.4365 354.431 90.3588 353.091 87.6552C351.753 84.9514 351.082 81.7721 351.082 78.1173V53.6339H363.735V76.3899C363.735 79.1936 364.453 81.3716 365.892 82.9237C367.331 84.4757 369.266 85.2518 371.698 85.2518C374.177 85.2518 376.138 84.4757 377.576 82.9237C379.015 81.3716 379.736 79.1936 379.736 76.3899V53.6339H392.463Z" fill="#10B981"/>
<path d="M426.906 53.1835C431.771 53.1835 435.639 54.7857 438.517 57.9898C441.446 61.1443 442.909 65.5002 442.909 71.0576V95.5407H430.256V72.785C430.256 69.9811 429.538 67.8032 428.099 66.251C426.66 64.699 424.725 63.9228 422.292 63.9228C419.863 63.9228 417.927 64.699 416.488 66.251C415.05 67.8032 414.329 69.9811 414.329 72.785V95.5407H401.604V53.6339H414.329V59.1915C415.62 57.3391 417.356 55.887 419.54 54.8356C421.722 53.7343 424.179 53.1835 426.906 53.1835Z" fill="#10B981"/>
<path d="M449.223 74.5125C449.223 70.2065 450.014 66.4264 451.603 63.1719C453.241 59.9175 455.45 57.4142 458.226 55.6617C461.005 53.9095 464.107 53.0332 467.53 53.0332C470.26 53.0332 472.739 53.6091 474.972 54.7606C477.254 55.9122 479.04 57.4642 480.331 59.4169V39.9655H493.058V95.5408H480.331V89.5327C479.141 91.5354 477.429 93.1376 475.196 94.3391C473.012 95.5408 470.457 96.1415 467.53 96.1415C464.107 96.1415 461.005 95.2655 458.226 93.513C455.45 91.7106 453.241 89.1822 451.603 85.9279C450.014 82.6233 449.223 78.8182 449.223 74.5125ZM480.331 74.5875C480.331 71.3831 479.438 68.8547 477.65 67.0021C475.914 65.1497 473.782 64.2235 471.251 64.2235C468.72 64.2235 466.563 65.1497 464.776 67.0021C463.039 68.8045 462.171 71.3081 462.171 74.5125C462.171 77.7166 463.039 80.2701 464.776 82.1727C466.563 84.0253 468.72 84.9515 471.251 84.9515C473.782 84.9515 475.914 84.0253 477.65 82.1727C479.438 80.3203 480.331 77.7919 480.331 74.5875Z" fill="#10B981"/>
<path d="M500.107 69.1048C500.107 63.898 501.223 59.2665 503.454 55.2112C505.687 51.1055 508.788 47.9262 512.758 45.6733C516.776 43.37 521.316 42.2185 526.378 42.2185C532.58 42.2185 537.887 43.8709 542.304 47.1752C546.719 50.4797 549.673 54.9859 551.161 60.6936H537.169C536.127 58.4907 534.639 56.8132 532.703 55.6617C530.819 54.5101 528.66 53.9345 526.228 53.9345C522.31 53.9345 519.132 55.3114 516.702 58.0651C514.27 60.8188 513.055 64.4987 513.055 69.1048C513.055 73.7112 514.27 77.3911 516.702 80.1448C519.132 82.8985 522.31 84.2754 526.228 84.2754C528.66 84.2754 530.819 83.6998 532.703 82.5482C534.639 81.3967 536.127 79.7192 537.169 77.5163H551.161C549.673 83.224 546.719 87.7302 542.304 91.0347C537.887 94.2891 532.58 95.9164 526.378 95.9164C521.316 95.9164 516.776 94.7897 512.758 92.5366C508.788 90.2335 505.687 87.0542 503.454 82.9987C501.223 78.9434 500.107 74.3119 500.107 69.1048Z" fill="black"/>
<path d="M577.857 96.1415C573.789 96.1415 570.117 95.2655 566.844 93.513C563.617 91.7607 561.062 89.2572 559.178 86.0029C557.341 82.7485 556.424 78.9434 556.424 74.5875C556.424 70.2815 557.366 66.5015 559.252 63.2471C561.138 59.9426 563.718 57.4142 566.992 55.6617C570.267 53.9095 573.937 53.0332 578.007 53.0332C582.075 53.0332 585.747 53.9095 589.02 55.6617C592.296 57.4142 594.876 59.9426 596.762 63.2471C598.646 66.5015 599.59 70.2815 599.59 74.5875C599.59 78.8932 598.621 82.6983 596.686 86.0029C594.802 89.2572 592.198 91.7607 588.873 93.513C585.597 95.2655 581.927 96.1415 577.857 96.1415ZM577.857 85.0265C580.289 85.0265 582.348 84.1254 584.035 82.3229C585.771 80.5205 586.639 77.9419 586.639 74.5875C586.639 71.2328 585.796 68.6544 584.109 66.852C582.471 65.0496 580.437 64.1482 578.007 64.1482C575.526 64.1482 573.467 65.0496 571.829 66.852C570.191 68.6043 569.372 71.1828 569.372 74.5875C569.372 77.9419 570.167 80.5205 571.755 82.3229C573.393 84.1254 575.427 85.0265 577.857 85.0265Z" fill="black"/>
<path d="M603.811 74.5125C603.811 70.2065 604.605 66.4264 606.191 63.1719C607.829 59.9175 610.038 57.4142 612.817 55.6617C615.594 53.9095 618.695 53.0332 622.118 53.0332C624.848 53.0332 627.33 53.6091 629.56 54.7606C631.843 55.9122 633.631 57.4642 634.919 59.4169V39.9655H647.646V95.5408H634.919V89.5327C633.729 91.5354 632.017 93.1376 629.784 94.3391C627.603 95.5408 625.047 96.1415 622.118 96.1415C618.695 96.1415 615.594 95.2655 612.817 93.513C610.038 91.7106 607.829 89.1822 606.191 85.9279C604.605 82.6233 603.811 78.8182 603.811 74.5125ZM634.919 74.5875C634.919 71.3831 634.027 68.8547 632.241 67.0021C630.505 65.1497 628.37 64.2235 625.839 64.2235C623.309 64.2235 621.152 65.1497 619.366 67.0021C617.627 68.8045 616.759 71.3081 616.759 74.5125C616.759 77.7166 617.627 80.2701 619.366 82.1727C621.152 84.0253 623.309 84.9515 625.839 84.9515C628.37 84.9515 630.505 84.0253 632.241 82.1727C634.027 80.3203 634.919 77.7919 634.919 74.5875Z" fill="black"/>
<path d="M696 73.9115C696 75.1132 695.926 76.3648 695.776 77.6667H666.975C667.174 80.2701 667.993 82.2728 669.431 83.6747C670.919 85.0265 672.73 85.7025 674.864 85.7025C678.039 85.7025 680.248 84.3507 681.487 81.6469H695.033C694.337 84.4007 693.073 86.8791 691.236 89.082C689.451 91.285 687.193 93.0124 684.463 94.264C681.736 95.5157 678.684 96.1415 675.309 96.1415C671.242 96.1415 667.619 95.2655 664.444 93.513C661.269 91.7607 658.787 89.2572 657.002 86.0029C655.216 82.7485 654.324 78.9434 654.324 74.5875C654.324 70.2316 655.192 66.4264 656.928 63.1718C658.714 59.9175 661.195 57.4142 664.37 55.6617C667.545 53.9095 671.192 53.0332 675.309 53.0332C679.328 53.0332 682.901 53.8844 686.027 55.5867C689.153 57.289 691.583 59.7173 693.322 62.8715C695.107 66.0259 696 69.7059 696 73.9115ZM682.975 70.5319C682.975 68.329 682.232 66.5765 680.742 65.2749C679.254 63.9731 677.395 63.3222 675.162 63.3222C673.027 63.3222 671.217 63.948 669.729 65.1996C668.29 66.4515 667.398 68.2289 667.048 70.5319H682.975Z" fill="black"/>
<path d="M40.3333 44.9872C40.339 44.998 40.3461 45.0086 40.3498 45.0202C40.4302 45.2765 39.976 45.8866 39.8309 46.1338C37.6627 49.844 35.6399 53.64 33.7683 57.5116C32.8856 59.3698 32.1006 61.2682 31.2583 63.145C30.4349 63.587 28.9706 63.788 28.0289 64.0431L21.6539 65.8352C18.2135 66.788 14.7654 67.7422 11.3395 68.7466C8.28597 69.6421 5.24612 70.5978 2.1721 71.4226C1.41981 71.6142 0.700749 71.8093 0 72.1527C0.974673 70.6502 1.77375 69.0081 2.70658 67.4741C6.05129 61.973 10.0704 56.1987 15.1162 52.1716C22.5126 46.2689 30.9796 43.8824 40.3333 44.9872Z" fill="#10B981"/>
<path d="M112.59 0L112.777 0.164226C112.699 1.18449 112.78 2.24716 112.771 3.27308C112.759 4.64736 112.659 6.04589 112.56 7.41683C112.446 8.99711 112.219 10.5558 111.999 12.1231C111.348 16.7689 110.42 21.4819 109.056 25.9717C107.519 31.1274 105.559 36.1448 103.194 40.9711C101.504 44.329 99.6355 47.5926 97.5977 50.7478C96.4064 52.5581 95.0908 54.2939 93.7881 56.0235C85.9457 66.4963 76.4671 75.6113 65.7233 83.0115C61.6713 85.7819 57.4439 88.1787 53.1262 90.4968C52.5271 90.0188 51.9666 89.4724 51.3897 88.9654L47.8484 85.857C47.3165 85.3878 46.8098 84.886 46.2525 84.4481C47.2894 83.4651 48.2016 82.2533 49.1347 81.1652L53.746 75.7793C54.6535 74.7198 55.5416 73.63 56.4955 72.6138C55.0708 71.3415 53.6363 70.0815 52.1909 68.8328C51.3284 68.0842 50.4167 67.3563 49.6108 66.5464C46.2279 70.5346 42.8171 74.4989 39.3784 78.4383C38.1962 77.5626 37.1111 76.5033 35.9987 75.537C35.0128 74.6814 33.1837 73.321 32.484 72.3368C32.4132 71.8195 33.3187 69.802 33.532 69.2404C36.6251 60.9197 40.6157 52.967 45.4314 45.5267C54.0086 32.1468 66.0064 19.5861 79.7198 11.5753C86.7691 7.45732 94.915 4.17627 102.747 1.95049C105.074 1.28932 107.484 0.781894 109.866 0.371275C110.738 0.220894 111.653 0.211992 112.51 0.0191948C112.536 0.0130914 112.563 0.00667361 112.59 0ZM74.2743 46.4913C79.0787 49.8236 85.652 48.5865 88.9434 43.7302C92.235 38.8742 90.994 32.2437 86.1739 28.9335C81.3696 25.6339 74.8249 26.8814 71.5442 31.7219C68.2636 36.5625 69.4847 43.1696 74.2743 46.4913Z" fill="#10B981"/>
<path d="M79.0137 78.1874C79.51 79.699 79.6603 81.2944 79.8209 82.8705C80.5535 90.0397 79.4763 97.2034 76.2644 103.659C73.5522 109.109 69.2023 113.435 64.7192 117.423C63.6252 118.397 62.5394 119.388 61.4189 120.331C60.3309 121.245 59.1477 122.071 58.0799 123L57.9097 122.851C58.1145 121.921 58.1977 120.945 58.3228 120L59.0134 114.779L61.3956 97.4135L61.9976 92.7882C62.1125 91.9309 62.1818 91.0212 62.4278 90.1914C63.9137 89.2414 65.4262 88.345 66.8957 87.3632C71.1219 84.5642 75.1692 81.4995 79.0137 78.1874Z" fill="#10B981"/>
<path d="M33.2664 78.6676C36.0536 80.9682 38.7395 83.3999 41.4615 85.7787C42.5023 86.684 43.5377 87.5954 44.5679 88.514C45.0925 88.9819 45.6746 89.4397 46.1451 89.9624C46.2302 90.0845 46.3141 90.208 46.3967 90.3319C46.0477 90.9551 41.8988 95.7289 41.2704 96.2581C41.1656 96.3464 41.0783 96.4536 40.9913 96.5589C39.3125 96.5589 37.5838 96.847 35.9065 96.9742C34.2386 97.1001 32.5711 97.1948 30.9064 97.3631C30.3029 97.4241 29.6425 97.4438 29.0547 97.5894L28.8963 97.4507C29.0188 96.5735 28.7977 95.4669 28.7362 94.5789L28.3017 87.8129C28.2402 86.7581 28.0845 85.6223 28.1598 84.576C29.8154 82.5726 31.5743 80.6415 33.2664 78.6676Z" fill="#10B981"/>
<path d="M28.8695 108.371C28.8695 114.304 24.1029 119.114 18.2229 119.114C12.3429 119.114 7.57617 114.304 7.57617 108.371C7.57617 102.437 12.3429 97.6268 18.2229 97.6268C24.1029 97.6268 28.8695 102.437 28.8695 108.371Z" fill="black"/>
</g>
<defs>
<clipPath id="clip0_2057_622">
<rect width="696" height="123" fill="white"/>
</clipPath>
</defs>
</svg>
